<svg xmlns="http://www.w3.org/2000/svg" viewBox="0 0 2270.402 2838.869" height="3028.127" width="2421.763" xmlns:v="https://vecta.io/nano"><path d="M2269.389 350.882c-1.767 4.983-4.791 8.404-7.428 8.404-1.329 0-1.961.681-1.961 2.114 0 6.319-8.971 15.067-14.553 14.193-1.621-.254-3.847-.518-4.947-.586-2.537-.158-3.641-1.293-5.859-6.021-3.008-6.412-3.164-10.116-.601-14.263 2.395-3.875 9.499-10.902 13.566-13.418 1.317-.815 2.395-1.943 2.395-2.506 0-2.795 13.346-4.5 15.824-2.021.639.639.749 1.013 1.051 3.568.069.582.524.813 1.011.511s1.111.235 1.387 1.191a66.64 66.64 0 0 0 1.034 3.239c.294.825-.119 3.343-.918 5.596zm-44.514 51.982c-.481.297-.875 1.428-.875 2.513s-.675 2.231-1.5 2.548-1.5 1.14-1.5 1.83c0 1.503-6.357 4.67-14.196 7.074-5.906 1.811-16.177 1.485-18.241-.578-.53-.53-1.944-.963-3.143-.963-2.863 0-9.992-6.979-10.651-10.427-.285-1.489-.02-3.761.588-5.05 1.151-2.439 7.944-6.073 9.526-5.096.499.308 1.168-.116 1.485-.942s.927-1.446 1.355-1.376 2.142.074 3.809.01c2.399-.094 3.267-.744 4.163-3.118.847-2.244 1.77-3 3.66-3 1.39 0 2.806-.45 3.146-1 .954-1.544 7.104-1.182 8.5.5.685.825 2.059 1.5 3.055 1.5s2.098.908 2.45 2.017 2.182 2.661 4.067 3.449 3.427 2.13 3.427 2.983.394 1.551.875 1.551.875 1.133.875 2.518-.394 2.762-.875 3.059zm-11.433-172.699c-1.343 2.958-2.442 5.958-2.442 6.667s-.407 1.438-.905 1.622c-1.177.433-9.095 15.506-9.095 17.313 0 .762-.9 1.671-2 2.02s-2 1.011-2 1.471-1.463 2.549-3.25 4.642c-11.758 13.767-17.669 17.073-40.962 22.908-7.045 1.765-11.115 4.489-12.23 8.186-.366 1.213-1.904 3.248-3.417 4.522s-3.05 3.093-3.415 4.044-1.352 1.728-2.195 1.728-1.517.563-1.5 1.25c.051 2.004 2.32 4.303 4.218 4.276.963-.014 1.734.328 1.714.76-.07 1.532 3.017 3.808 4.763 3.513 1.534-.259 1.77.507 1.755 5.701-.025 8.412-3.142 14.312-12.543 23.739-4.245 4.256-7.98 8.423-8.301 9.259s-.934 1.445-1.361 1.352c-.962-.208-4.271.974-6.278 2.242-.825.521-2.886 1.588-4.58 2.37s-3.67 2.133-4.391 3.003-2.073 1.339-3.004 1.043-3.648.153-6.039.997c-2.953 1.042-4.674 1.207-5.367.514-.561-.561-2.022-1.019-3.248-1.019s-2.903-.675-3.729-1.5c-1.981-1.981-4.022-1.929-3.25.082.334.87.607 1.77.607 2s.675.418 1.5.418c1.697 0 2.047 1.651.463 2.179-1.23.41.895 10.821 2.209 10.821.456 0 .828 1.37.828 3.045 0 1.92.877 3.86 2.376 5.25 6.274 5.823 7.641 6.812 8.595 6.222.566-.35 1.029.066 1.029.923s.599 1.559 1.331 1.559 1.909 1.079 2.614 2.398 2.528 2.647 4.048 2.951c1.884.377 2.966 1.356 3.398 3.073.348 1.386 1.527 2.999 2.621 3.584s1.988 1.723 1.988 2.529.666 1.465 1.481 1.465 1.748 1.065 2.075 2.367 1.964 3.38 3.638 4.618c2.311 1.708 2.72 2.45 1.7 3.081-.962.595-.145 1.367 2.877 2.72 2.321 1.039 3.983 2.128 3.691 2.419-.716.716 6.291 6.795 7.832 6.795.674 0 1.787.9 2.474 2s1.82 2 2.518 2c1.713 0 4.206 3.046 6.673 8.152 2.544 5.266 2.556 8.633.041 11.849-1.075 1.375-1.966 2.951-1.978 3.501-.027 1.198-9.17 9.382-12.197 10.917-1.173.595-3.021 2.278-4.106 3.741l-1.974 2.659 3.127 3.057c3.915 3.827 3.996 6.853.377 14.11-2.416 4.845-3.479 5.866-8.75 8.405-3.3 1.589-6.979 3.774-8.176 4.855s-2.608 1.697-3.137 1.371-1.478.03-2.111.793-5.296 2.368-10.363 3.568-10.113 2.565-11.213 3.034-6.675 1.596-12.39 2.506-11.339 2.063-12.5 2.562c-3.16 1.359-13.604 2.741-14.142 1.871-1.227-1.986-19.512.905-28.968 4.581-3.3 1.283-8.475 2.551-11.5 2.819-6.776.599-7.693.887-19 5.956-3.025 1.356-8.875 3.47-13 4.698s-8.281 2.629-9.236 3.115-2.602.883-3.661.883-4.777.896-8.264 1.991-11.739 2.951-18.339 4.124c-12.914 2.295-17.304 4.225-19.563 8.6-.791 1.531-2.112 3.31-2.937 3.954s-1.5 1.588-1.5 2.099c0 1.091-9.101 13.461-12.928 17.573-1.455 1.563-3.355 3.925-4.223 5.25s-2.202 2.409-2.964 2.409-1.391.563-1.398 1.25-4.057 5.644-9 11.014S1874 614.758 1874 615.3s-.645.986-1.433.986-1.718.9-2.067 2-1.024 2-1.5 2-1.122.809-1.436 1.798-2.438 3.8-4.719 6.247-4.643 5.587-5.247 6.977-1.897 3.417-2.873 4.503c-6.147 6.839-6.725 7.86-6.725 11.879 0 4.586-5.068 19.909-7.459 22.551-.847.937-1.541 1.95-1.541 2.253 0 1.846-7.475 12.486-9.527 13.561-1.778.932-2.473 2.124-2.473 4.244 0 4.441 2.984 11.178 6.196 13.988 2.51 2.196 2.747 2.873 1.953 5.566-1.49 5.054-5.748 8.799-11.494 10.11-3.165.722-5.521.819-6.104.25-.523-.509-2.104-.926-3.514-.926-4.346 0-19.79-6.333-21.336-8.75-.44-.687-1.678-1.25-2.751-1.25s-5.438-1.74-9.7-3.866L1768 703.532l-15.5-7.204-14.5-6.722c-1.925-.847-4.175-1.944-5-2.437a34.73 34.73 0 0 0-3-1.567c-.825-.369-1.725-.928-2-1.244s-2.075-1.367-4-2.337c-6.075-3.062-13.154-7.369-13.84-8.42-.363-.557-2.813-2.205-5.444-3.663-5.36-2.97-9.964-5.829-10.716-6.655-.275-.302-2.525-2.101-5-3.997s-4.725-3.685-5-3.974c-1.351-1.421-7.042-5.026-7.934-5.026-.558 0-1.706-1.337-2.551-2.97s-2.544-3.494-3.776-4.133c-2.893-1.502-10.786-9.607-17.67-18.142-2.986-3.704-6.361-7.018-7.5-7.366s-2.698-1.14-3.466-1.76-3.58-1.626-6.249-2.234c-5.272-1.202-8.498-.226-12.126 3.668-.993 1.066-2.477 1.938-3.298 1.938s-1.752.675-2.068 1.5-1.154 1.5-1.862 1.5-1.519.606-1.803 1.347-3.145 2.404-6.357 3.696-7.973 3.836-10.58 5.653-5.147 3.304-5.645 3.304-3.09 2.072-5.76 4.603-8.929 7.672-13.909 11.423-15.86 13.578-24.179 21.839c-16.93 16.812-19.114 18.07-27.948 16.1-2.651-.591-5.816-1.725-7.034-2.52s-2.885-1.445-3.705-1.445c-.932 0-1.694-1.31-2.035-3.5l-1.127-7.196c-.32-2.033-.77-5.699-.999-8.147-.513-5.475-1.664-6.953-5.72-7.349-1.915-.187-3.567-1.093-4.206-2.308l-2.948-5.5c-1.042-1.925-2.012-4.4-2.156-5.5-1.349-10.328-2.431-15.944-3.226-16.738-1.079-1.079-5.162.719-5.162 2.273 0 .531-.9.965-2 .965s-2 .36-2 .801-1.913 2.034-4.25 3.542c-6.604 4.26-11.039 8.381-10.302 9.573.369.596 1.141 1.084 1.717 1.084s2.752 1.35 4.835 3 4.091 3 4.461 3c.955 0 7.625 5.035 10.242 7.731 1.211 1.248 2.899 2.269 3.75 2.269s1.548.45 1.548 1 .94 1 2.089 1c2.375 0 9.911 6.693 9.911 8.802 0 .764.739 2.809 1.643 4.544 3.073 5.901 3.357 6.627 3.357 8.582 0 1.075.403 2.204.896 2.508s2.328 3.369 4.077 6.809c4.465 8.779 6.909 10.753 13.333 10.766 8.644.018 12.686 1.047 14.401 3.665 1.433 2.187 1.415 2.752-.207 6.608-4.297 10.214-5.889 13.462-8.443 17.217l-5.891 8.648c-1.744 2.556-5.645 7.031-8.669 9.943s-5.498 5.82-5.498 6.461-7.48 8.317-16.623 17.057l-18.75 18.229c-2.472 2.717-7.82 5.163-11.286 5.163-2.31 0-11.341 8.003-11.341 10.05 0 1.443-8.692 6.064-12.207 6.49l-7.29.885c-2.921.355-5.396-.175-9.188-1.969-2.855-1.35-5.63-2.455-6.169-2.455s-1.129-.354-1.312-.787-2.583-2.067-5.333-3.633-6.227-3.985-7.727-5.378-3.668-2.602-4.818-2.687c-1.962-.145-3.525-2.063-5.858-7.187-.789-1.734-1.386-15.465-1.014-23.328.039-.825-.608-3.525-1.438-6s-2.022-7.379-2.648-10.897c-1.045-5.871-3.572-9.95-6.239-10.07-.408-.018-2.868-1.657-5.467-3.641s-5.641-4.028-6.759-4.543a51.16 51.16 0 0 1-4.047-2.143c-7.335-4.396-10.757-6.519-16.704-10.364-3.695-2.389-7.032-4.343-7.416-4.343-.874 0-1.925-.938-12.147-10.844-8.26-8.005-11.779-9.876-13.773-7.322-.842 1.078-1.889 1.124-5.211.23-3.598-.969-4.297-1.62-5.198-4.841-.572-2.047-1.333-7.45-1.689-12.006s-1.031-8.52-1.499-8.809-.85-1.395-.85-2.458-.9-2.495-2-3.182-2-1.761-2-2.386-.666-1.689-1.479-2.365c-2.059-1.709-4.521-6.891-4.521-9.517 0-1.206.708-3.612 1.573-5.346 1.532-3.072 1.494-3.25-1.5-6.881-1.69-2.051-3.073-4.573-3.073-5.606 0-2.533 5.754-9.658 7.834-9.7.916-.019 3.466-.903 5.666-1.966s4.369-1.947 4.82-1.966 2.749-1.361 5.107-2.984 6.489-3.462 9.18-4.089 5.568-1.389 6.393-1.694a14.35 14.35 0 0 1 3-.697c.825-.078 3.975-1.293 7-2.698l8.197-3.668c4.626-1.908 6.172-5.468 5.959-13.722-.106-4.112.258-7.619.827-7.971.559-.346 1.017-1.468 1.017-2.493s1.366-2.912 3.037-4.191l6.25-4.826c1.767-1.375 5.238-3.531 7.713-4.79 7.565-3.85 7.817-4.218 9.477-13.795.976-5.635 2.143-9.36 3.172-10.126.895-.666 2.14-2.241 2.765-3.5s2.138-2.432 3.361-2.608 2.225-.738 2.225-1.25 1.07-.93 2.378-.93 2.938-.675 3.622-1.5c.697-.839 2.876-1.5 4.948-1.5 2.657 0 4.367-.706 6.052-2.5 1.292-1.375 2.855-2.5 3.475-2.5s2.338-.562 3.818-1.25c3.298-1.532 3.443-4.37 1.163-22.78-.85-6.858-1.266-14.124-.925-16.145.649-3.85-.321-5.417-5.464-8.825-9.304-6.165-20.066-15.328-20.066-17.084 0-.504-.675-.916-1.5-.916-2.416 0-2.014-6.702.449-7.484 1.072-.34 2.227-1.495 2.567-2.567.473-1.49 1.531-1.949 4.492-1.949 2.13 0 4.131-.417 4.447-.927s2.704-.732 5.309-.494c18.666 1.707 19.752 1.709 21.131.048.743-.895 1.901-1.627 2.574-1.627s2.676-.725 4.452-1.61c2.019-1.007 4.364-1.383 6.262-1.003 3.158.632 13.349-1.818 14.359-3.452.318-.514.038-.934-.622-.934s-3.274-.961-5.809-2.136l-6.882-3.181c-4.268-1.963-8.227-6.268-8.227-8.945 0-3.835 4.662-8.919 7.89-8.605 1.436.14 3.539-.254 4.675-.876 1.307-.715 3.327-.835 5.5-.325 5.615 1.316 15.288 4.127 17.435 5.068 1.1.482 6.05 1.365 11 1.963l12.371 1.519c4.684.6 19.224-1.324 21.544-2.852 1.054-.693 2.023-2.356 2.154-3.695 1.331-13.568 1.847-17.073 2.578-17.525.469-.29.852-1.997.852-3.793s1.392-7.958 3.093-13.691 3.449-13.124 3.884-16.424l1.873-14.5c.595-4.675 1.037-15.475.983-24s.208-17.975.584-21l1.039-9.5c.947-10.645 3.735-29.976 5.551-38.5 2.89-13.565 2.654-31.343-.541-40.755-1.895-5.581-1.846-6.883.285-7.599 5.739-1.927 7.928-4.845 8.732-11.64.358-3.028.873-6.856 1.143-8.506.548-3.34-1.468-15.323-2.896-17.215-.504-.668-1.135-3.818-1.402-7-.646-7.702-.646-7.689-.311-16.13.217-5.466-.068-7.573-1.113-8.235-1.85-1.171-2.65-1.141-3.434.129-.445.721-1.075.694-2.015-.086-.752-.624-1.806-.864-2.342-.532s-1.257.145-1.603-.414-1.447-1.016-2.447-1.016-2.357-.648-3.014-1.441-2.355-1.58-3.772-1.75c-3.79-.455-8.395-6.67-9.014-12.168-.565-5.014 1.903-10.324 6.636-14.279 2.354-1.967 2.449-2.344 1.187-4.702-.83-1.551-2.599-2.826-4.479-3.227-1.709-.365-3.603-1.061-4.209-1.548-.689-.553-2.375.05-4.5 1.611-3.949 2.901-12.175 6.91-16.17 7.88-2.013.489-2.932.255-3.357-.851-.322-.838-1.785-1.525-3.251-1.525-1.893 0-3.673-1.193-6.143-4.12-1.913-2.266-4.363-4.979-5.446-6.028-1.745-1.692-1.973-3.311-2-14.253l-.031-12.345 3.758-5.463c3.878-5.637 5.884-7.158 11.539-8.75 2.56-.721 4.3-.499 7.78.992 2.78 1.192 5.99 1.776 8.452 1.539 2.183-.21 4.184-.035 4.446.389s1.584.559 2.937.3 3.909.252 5.679 1.135c3.104 1.548 3.336 1.515 6.563-.946 1.84-1.403 3.345-2.983 3.345-3.511s1.747-2.867 3.881-5.199c8.251-9.013 11.119-12.524 11.119-13.611 0-.621.421-1.129.936-1.129s1.924-1.758 3.131-3.906c1.916-3.409 2.783-3.994 6.814-4.599 2.54-.381 5.361-1.09 6.269-1.576 1.167-.625 1.828-.419 2.258.702.335.872 1.227 1.348 1.982 1.058 1.623-.623 9.564 1.187 11.359 2.589.894.698 1.25.487 1.25-.74 0-.944-.87-1.943-1.933-2.222s-2.63-1.974-3.482-3.769-2.26-3.853-3.129-4.575-3.143-3.666-5.054-6.544-4.163-5.497-5.005-5.82c-.966-.371-1.415-1.553-1.215-3.201.253-2.086 1.266-2.972 5.016-4.39 2.585-.977 4.956-1.52 5.27-1.206s1.349.691 2.301.838c8.971 1.385 11.36 1.497 12.471.585 4.636-3.803 27.452.292 37.758 6.777 5.126 3.225 21 18.306 21 19.95 0 .576.384 1.048.854 1.048 1.049 0 4.238 3.004 10.146 9.559 2.475 2.746 7.425 7.394 11 10.329s8.381 7.355 10.681 9.822c4.192 4.498 4.479 5.97 1.808 9.29-3.917 4.868-1.735 9.952 7.724 17.998 2.908 2.473 7.158 6.298 9.445 8.5 4.396 4.232 11.342 13.731 11.342 15.51 0 .581.675 1.314 1.5 1.631s1.5.987 1.5 1.49c0 1.315 5.123 8.872 6.015 8.872.412 0 2.917 1.991 5.567 4.424 3.476 3.192 6.726 5.026 11.671 6.587 10.148 3.203 15.245 6.315 17.624 10.759.657 1.227 1.853 2.231 2.659 2.231s1.465.499 1.465 1.108.978 3.239 2.173 5.844c1.704 3.715 3.267 5.34 7.25 7.537 2.793 1.54 5.836 3.455 6.764 4.254s2.112 1.19 2.632.869 2.011.244 3.313 1.257 4.055 2.391 6.118 3.064 3.75 1.589 3.75 2.037 1.237 1.121 2.75 1.497 3.727 1.595 4.922 2.709 3.332 2.094 4.749 2.176 2.578.487 2.578.899 1.126.75 2.501.75 2.5.414 2.5.92 1.448 1.239 3.217 1.627 3.907 1.072 4.75 1.519 6.033 2.235 11.533 3.972 11.35 3.723 13 4.412 4.8 1.735 7 2.323c6.924 1.853 13.961 4.555 15 5.759.55.638 2.8 2.2 5 3.472 4.512 2.609 7.445 5.755 7.478 8.023.022 1.54 5.994 3.386 19.522 6.035 3.3.646 7.908 2.021 10.239 3.056s5.144 1.881 6.25 1.881 2.011.45 2.011 1 .563 1.007 1.25 1.015c2.643.031 18.876 8.98 22.473 12.388 2.078 1.969 4.227 3.585 4.777 3.59s3.025 1.809 5.5 4.007 4.918 3.998 5.429 3.999c2.64 0 12.571 14.693 12.571 18.594 0 1.879 1.353 1.774 5.254-.409 3.354-1.878 13.364-11.183 12.029-11.183-.414 0 .999-.939 3.14-2.087s4.548-2.741 5.348-3.542 3.766-3.018 6.592-4.929c6.107-4.131 9.96-6.946 15.399-11.254 2.214-1.754 4.445-3.189 4.956-3.189s2.697-1.792 4.856-3.983 4.433-3.991 5.053-4 1.688-.692 2.372-1.517 2.508-1.5 4.051-1.5c1.834 0 4.093-1.213 6.517-3.5 2.041-1.925 4.37-3.5 5.176-3.5s3.727-1.136 6.492-2.525 6.655-2.638 8.645-2.775 4.14-.578 4.778-.978 1.83-.471 2.649-.157c2.029.779 3.144-1.315 1.655-3.109-.851-1.026-.877-1.456-.086-1.456.617 0 1.122.45 1.122 1 0 1.706 2.599 1.101 4.555-1.061 1.596-1.764 1.655-2.194.405-2.985-.996-.63-1.063-.928-.21-.939.688-.01 1.25-.59 1.25-1.293s.72-2.306 1.601-3.563c1.485-2.119 1.731-2.168 3.384-.673 1.429 1.293 1.62 2.332.965 5.238-.591 2.622-.421 4.192.616 5.673 1.837 2.623 1.823 5.071-.04 6.934-1.299 1.299-1.269 1.564.25 2.229.948.415 2.287.664 2.974.553s1.25.183 1.25.654.866 1.785 1.925 2.921c1.986 2.132 5.056 11.03 4.424 12.823-.196.557 1.458 1.798 3.675 2.759 2.47 1.07 4.409 2.737 5.004 4.303 1.289 3.389 1.241 10.141-.077 10.956-.648.4-.699 1.092-.134 1.809.503.639 1.131 2.364 1.395 3.835.352 1.959.016 2.795-1.26 3.129-.961.251-2.048 1.854-2.426 3.577-.377 1.717-1.059 3.121-1.515 3.121-.738 0-1.681 4.614-3.574 17.5-.649 4.419-.818 8.477-.666 16a249.64 249.64 0 0 1-.016 9.5c-.065 2.475.01 6.525.16 9 .398 6.46-1.751 25.621-3.505 31.25-.3.962-.065 1.75.522 1.75s1.067-.675 1.067-1.5.477-1.5 1.059-1.5.781.45.441 1 .309 1 1.441 1c1.233 0 2.059-.651 2.059-1.622 0-1.254.309-1.366 1.359-.495 1.038.861 1.967.649 3.935-.899 1.417-1.115 3.109-1.904 3.759-1.755s1.314-.516 1.476-1.478c.184-1.092-.341-1.75-1.395-1.75-2.151 0-5.134-3.444-5.134-5.928 0-1.048-.562-2.111-1.25-2.364-1-.367-1-.723 0-1.783.688-.729 1.25-2.303 1.25-3.499s1.075-4.143 2.388-6.55 2.924-6.063 3.578-8.126 1.571-3.75 2.038-3.75 2.237-2.425 3.932-5.389 5.329-7.744 8.073-10.621 4.99-6.06 4.99-7.072c0-3.274 2.959-5.33 16.5-11.466 5.467-2.478 12.873-4.593 15.972-4.562 3.17.032 5.329-2.67 5.329-6.671 0-2.009.495-3.817 1.1-4.019s1.1-.832 1.1-1.401 1.237-2.508 2.75-4.308 3.65-4.461 4.75-5.912c3.487-4.601 18.535-19.724 22.85-22.963 4.019-3.017 6.048-4.119 11.947-6.491 3.467-1.394 9.703-1.474 9.703-.125 0 .55.482 1 1.071 1 1.862 0 3.931 2.768 3.871 5.179-.032 1.277-1.157 4.742-2.5 7.7zm-125.057 218.122c-.762 0-2.386-1.001-3.609-2.224s-2.809-2.31-3.523-2.415-2.808-1.081-4.652-2.169-4.747-2.285-6.451-2.659-5.246-2.568-7.873-4.875-6.014-4.825-7.526-5.595-2.755-1.887-2.76-2.482-2.661-4.006-5.901-7.581-5.674-6.854-5.408-7.287-.899-2.201-2.589-3.929-3.366-4.074-3.726-5.213-1.682-3.421-2.939-5.071-2.284-3.357-2.283-3.793-1.026-2.461-2.282-4.5c-4.72-7.663-6.39-15.154-6.291-28.207.099-13 1.128-17.936 3.965-19.014 1.239-.471 2.412-1.278 2.608-1.793.716-1.89 9.043-5.163 10.776-4.235.921.493 4.128.809 7.126.703l5.452-.193 1.146-7.984c.643-4.478.768-8.386.285-8.899-.493-.524-.128-1.472.854-2.218 1.225-.931 1.327-1.312.358-1.335-.901-.021-1.111-.619-.625-1.782.403-.962.832-7.752.955-15.087l.222-13.337-2.315.443c-1.381.264-3.118-.306-4.306-1.413-1.095-1.02-2.585-1.855-3.311-1.855s-2.285-.677-3.466-1.504c-2.136-1.496-6.583-.785-7.443 1.189-.52 1.193-6.418 4.315-8.152 4.315-.819 0-1.748.675-2.064 1.5s-1.204 1.5-1.972 1.5-2.617.96-4.108 2.133-5.039 3.351-7.885 4.84l-11.174 5.976-8.614 4.666c-1.438.768-4.989 4.095-7.89 7.391s-5.707 5.994-6.234 5.994-2.376.627-4.11 1.393l-4.651 2.039c-2.054.885-5.505 2.923-7.143 4.219-1.565 1.238-6.804 2.764-8.531 2.485-.646-.104-1.431.226-1.745.733-.335.542-2.104.576-4.291.083-2.113-.476-4.186-.453-4.796.053-2.868 2.38-20.806 4.729-22.993 3.011-.55-.432-2.382-1.081-4.071-1.441s-4.506-1.966-6.26-3.568l-3.188-2.912.657-8.548.657-8.548h-4.144c-2.279 0-6.733-.874-9.898-1.942s-7.779-2.46-10.254-3.093-5.184-1.761-6.021-2.506-2.592-1.75-3.901-2.235c-1.515-.561-3.007-2.487-4.107-5.303-1.045-2.678-2.465-4.562-3.599-4.775-1.03-.194-2.548-.921-3.373-1.616-1.516-1.276-6.845-3.005-8.278-2.686-.428.095-1.039-.506-1.357-1.336s-1.155-1.509-1.858-1.509-2.568-.672-4.143-1.494-3.539-1.5-4.364-1.507-2.85-.907-4.5-2-3.787-1.99-4.75-1.993-1.75-.364-1.75-.802-2.025-1.63-4.5-2.651-4.5-2.183-4.5-2.584-1.463-1.277-3.25-1.948-4.886-2.075-6.886-3.121-4.314-1.902-5.143-1.902-1.766-.675-2.082-1.5-1.233-1.5-2.037-1.5c-2.743 0-28.213-13.654-32.352-17.343-1.237-1.103-2.25-1.624-2.25-1.157s-1.012-.038-2.25-1.121-3.6-2.603-5.25-3.377-4.237-2.525-5.75-3.892-2.75-2.16-2.75-1.763-.9.241-2-.348-2-1.677-2-2.419-.787-1.633-1.75-1.981c-2.839-1.026-6.401-3.305-6.063-3.879.172-.292-2.162-2.485-5.187-4.873-10.408-8.216-28.691-27.595-31.432-33.318-1.523-3.18-4.899-6.531-6.58-6.531-.544 0-.989-.538-.989-1.195s-1.053-2.345-2.341-3.75-2.942-4.13-3.676-6.055c-1.384-3.627-2.575-5.223-7.233-9.692-1.513-1.451-2.75-3.209-2.75-3.906s-.787-1.531-1.75-1.853-2.525-2.265-3.473-4.317-3.31-6.134-5.25-9.069-3.535-6.086-3.544-7-2.26-4.073-5-7.019-4.995-5.646-5.01-6-1.365-1.957-3-3.561-2.972-3.292-2.972-3.75-.49-.833-1.09-.833c-1.119 0-4.818-3.945-4.877-5.203-.018-.387-2.141-2.991-4.717-5.788s-5.428-6.305-6.338-7.797-4.427-5.276-7.816-8.409-6.162-6.171-6.162-6.75-.627-1.053-1.393-1.053-1.655-.684-1.976-1.52-2.169-2.455-4.107-3.599c-2.744-1.619-3.524-2.721-3.524-4.98 0-1.596-.393-2.901-.873-2.901-.759 0-10.73 7.678-16.627 12.803-1.1.956-6.275 6.37-11.5 12.03l-9.885 10.697c-.558.588 2.098 6.851 3.233 7.624.529.36 1.273 4.582 1.655 9.381.561 7.063 1.081 9.035 2.728 10.345 5.562 4.424 6.067 10.682 2.757 34.119-1.706 12.083-2.132 19.364-1.401 23.984.458 2.898.963 5.388 1.123 5.534s2.525-.079 5.255-.5 5.656-.428 6.5-.014 3.222 1.475 5.285 2.358 3.75 2.21 3.75 2.948 1.125 2.399 2.5 3.691 2.5 2.951 2.5 3.688.44 2.121.979 3.076c1.272 2.257 9.387 24.842 11.224 31.236.553 1.925 1.409 3.996 1.902 4.603 2.134 2.626 1.788 28.706-.609 45.897-3.897 27.942-6.573 40.839-12.577 60.611-1.605 5.286-2.918 10.997-2.918 12.691s-.374 3.311-.831 3.593c-.789.488-2.273 6.548-3.659 14.942-.349 2.111-1.551 5.598-2.673 7.75-1.922 3.687-4.071 4.735-8.193 3.996-.47-.084-1.464.352-2.209.97s-2.608.848-4.162.507c-2.089-.459-3.686.031-6.238 1.913-1.886 1.391-5.806 3.419-8.71 4.506s-6.191 2.544-7.303 3.239c-2.339 1.461-2.759 5.782-.563 5.782.803 0 2.572 1.2 3.932 2.666 2.575 2.777 2.641 3.959.662 11.834-.553 2.2-1.03 7.15-1.06 11-.139 17.749-3.109 27.601-9.45 31.342-1.949 1.15-3.543 2.556-3.543 3.124s-.527 1.034-1.171 1.034-1.882.617-2.75 1.371c-4.726 4.103-33.038 10.149-43.079 9.199-10.493-.993-12.962-.954-23.688.369-5.603.692-13.817 1.034-18.254.76s-8.3-.118-8.586.345c-.579.937 6.973 5.633 11.872 7.382 1.736.62 5.059 2.352 7.386 3.85s4.577 2.725 5 2.728c1.186.01 9.991 8.605 11.28 11.012 1.372 2.563.645 4.982-1.497 4.982-1.106 0-1.391.645-.995 2.25.586 2.375-4.034 7.808-12.178 14.32-3.917 3.132-12.303 7.416-14.578 7.448-1.993.027-5.761 4.549-5.761 6.913 0 4.28-11.266 13.075-27.841 21.735-4.763 2.488-9.531 5.366-10.597 6.395-1.747 1.687-1.8 2.144-.536 4.655a61.83 61.83 0 0 0 3.3 5.597c2.016 2.987 2.056 2.557-1.483 16.188-.571 2.2-2.076 5.35-3.343 7-6.61 8.604-17.779 17.5-21.971 17.5-1.326 0-2.694.457-3.039 1.015-.889 1.439-6.471 3.637-11.313 4.455-5.411.914-8.511 3.48-10.129 8.384-1.566 4.746-.962 6.848 2.328 8.099 2.823 1.074 5.098 6.811 4.309 10.872-.285 1.471-1.294 5.514-2.24 8.984-1.7 6.231-1.695 6.327.368 7.772 1.149.805 2.77 2.144 3.603 2.977s3.001 2.135 4.82 2.895 4.153 2.318 5.19 3.464 2.66 2.083 3.607 2.083c3.783 0 5.964 6.831 3.42 10.713-.901 1.376-1.259 2.86-.796 3.299s3.749 1.009 7.301 1.268 6.605.911 6.785 1.45 1.436.768 2.792.509c1.385-.265 2.465 0 2.465.605 0 .592 1.157 2.149 2.571 3.46 2.551 2.365 2.57 2.502 2.488 17.508l-.082 15.124 5.019 3.967c7.436 5.878 8.352 5.953 13.599 1.117 3.922-3.615 8.073-5.883 23.166-12.659 1.794-.805 3.678-1.206 4.188-.891s1.293-.012 1.739-.726 2.837-2.122 5.312-3.128c10.233-4.157 14.57-6.072 15.794-6.977 4.505-3.329-12.351-31.638-18.838-31.638-.941 0-5.929-1.37-11.084-3.045-8.375-2.721-10.957-3.084-24.257-3.408-9.586-.233-15.132-.763-15.58-1.488-.383-.619-1.335-.899-2.116-.622-1.593.566-5.196-2.098-6.127-4.529-.669-1.747-5.889-4.523-9.805-5.215-9.908-1.75-11.841-6.11-6.193-13.97 3.701-5.152 7.556-7.355 20.537-11.74 4.729-1.597 6.938-1.908 8.318-1.17 1.355.725 2.416.613 3.805-.404 1.06-.775 3.235-1.409 4.835-1.409 1.98 0 3.893-1.037 5.997-3.25 6.543-6.884 11.484-13.526 12.618-16.963.794-2.407 2.127-3.972 4.066-4.775 1.586-.657 3.661-2.053 4.611-3.103s3.029-1.909 4.621-1.909c2.189 0 3.195-.67 4.134-2.75 2.798-6.2 5.922-10.254 8.011-10.398 2.796-.192 4.907-.484 6.151-.85 3.49-1.026 25.634-1.379 28.843-.461 1.186.339 4.477 1.547 7.312 2.683 6.22 2.492 7.71 5 5.747 9.67-1.499 3.565-.803 5.971 2.4 8.304 2.264 1.648 6.99 7.9 9.088 12.02 2.095 4.115 4.109 4.76 4.109 1.315 0-2.883 2.564-8.534 3.872-8.534 1.077 0 12.551-11.287 17.573-17.287 2.17-2.592 4.529-4.713 5.242-4.713s1.858-.9 2.545-2 1.609-2 2.049-2c.893 0 6.638-3.905 8.208-5.579 1.528-1.63 11.044-7.421 12.194-7.421.554 0 1.78-.854 2.724-1.897 2.094-2.313 8.793-4.103 15.358-4.103 8.259 0 20.421 5.208 27.761 11.887 1.993 1.813 3.894 3.026 4.224 2.696s1.535.238 2.675 1.264c1.809 1.626 5.154 3.572 10.607 6.169.843.402 2.95 1.041 4.681 1.421s3.66 1.309 4.286 2.063 2.426 1.654 4 2 3.394 1.27 4.044 2.053 1.571 1.185 2.046.891 5.711 1.056 11.637 2.999l15.773 5.03c16.923 5.068 30.664 10.438 38 14.849l7 4.124c2.75 1.607 6.688 4.603 8.75 6.659 3.018 3.008 3.753 4.486 3.767 7.566.019 4.256 3.304 8.328 6.719 8.328 1.075 0 2.769.9 3.764 2s2.636 2 3.646 2 2.399.9 3.086 2 1.818 2 2.513 2 3.537 1.096 6.315 2.437c3.476 1.677 5.166 2.067 5.419 1.25l1.581-5.187c1.548-5.106 5.569-13.141 8.508-17 2.256-2.963 4.546-8.415 10.917-26l10.582-28c.682-1.65 1.372-3.675 1.533-4.5.271-1.386 3.959-9.211 8.601-18.25 1.059-2.062 1.669-3.75 1.355-3.75s.992-2.224 2.902-4.942 3.749-6.039 4.085-7.379 2.79-4.795 5.453-7.676l4.841-5.238 7.07.4c3.889.22 7.188.134 7.331-.19s3.636-2.259 7.761-4.299 9.425-4.827 11.777-6.192 5.138-2.483 6.191-2.483 2.192-.45 2.532-1 1.448-1 2.463-1 4.635-1.577 8.046-3.505 8.066-3.801 10.346-4.163 4.595-1.202 5.145-1.867c1.212-1.465 4.094-2.307 12-3.506 14.87-2.255 22.208-3.666 24.835-4.776 2.602-1.1 6.539-1.035 17.665.289 1.925.229 4.85.011 6.5-.485s6.825-1.784 11.5-2.863l18.141-4.479c12.599-3.291 24.37-5.814 29.359-6.292 9.478-.908 17.684-5.957 25-15.384 3.781-4.871 13.09-11.947 15.769-11.987.677-.01 5.056-1.619 9.731-3.576s9.175-3.714 10-3.905l1.773-.424c.911-.255-3.256-5.077-4.388-5.077zm3.671-29c-.519 0-1.741-1.35-2.716-3-1.113-1.885-2.589-3-3.968-3-3.232 0-2.416 3.414.912 3.811 1.502.179 2.421.815 2.171 1.5-.691 1.889 1.189 4.039 2.943 3.366 1.72-.66 2.216-2.677.657-2.677zm-13.034-7.988c-1.613-.863-1.87-.778-1.393.465.322.838 1.211 1.523 1.977 1.523 1.953 0 1.734-.747-.584-1.988zm-5.21-3.695c-.798.319-.561.556.604.604 1.054.043 1.645-.193 1.313-.525s-1.195-.368-1.917-.079zm-6.417-10.046c-.332.332-.368 1.195-.079 1.917.319.798.556.561.604-.604.043-1.054-.193-1.645-.525-1.312zm-5.396-9.271c-.788-1.22-.972-1.09-.985.691-.01 1.205.435 2.469.985 2.809 1.273.787 1.273-1.53 0-3.5zm-2-8c-.55 0-1 .873-1 1.941s.45 2.219 1 2.559c.567.351 1-.49 1-1.941 0-1.407-.45-2.559-1-2.559zm-3.986-9.386c-.598-.598-1.212-.262-1.661.909-.428 1.115-.241 2.014.467 2.251.649.216 1.18 1.256 1.18 2.31s.506 1.917 1.125 1.917c1.296 0 .414-5.861-1.111-7.386zm-144.891-116.137c-2.26-3.3-8.161-7.719-10.831-8.111-.683-.1-2.439-1.124-3.902-2.274s-3.074-2.092-3.58-2.092c-.877 0-7.854-2.896-12.481-5.181-2.809-1.387-9.33-.199-9.33 1.7 0 3.798 14.345 14.481 19.445 14.481.855 0 1.555.417 1.555.927s3.388 1.474 7.529 2.142 7.767 1.601 8.059 2.073 2.416.806 4.721.742 3.516-.301 2.691-.526-2.57-1.972-3.877-3.881zm-73.098 333.523c-.536 0-1.666 1.338-2.512 2.973-1.362 2.634-1.365 2.907-.026 2.393.831-.319 1.512-1.207 1.512-1.973s.45-1.393 1-1.393 1-.45 1-1-.438-1-.974-1zm-244.647 13.51c-1.992-.945-3.844-2.571-4.117-3.614-.679-2.598-1.134-2.466-7.332 2.139-9.517 7.071-18.104 15.306-21.599 20.715-1.866 2.888-3.776 5.25-4.245 5.25s-1.124.788-1.455 1.75-1.46 3.141-2.507 4.84l-1.904 3.09 2.401-.459c1.321-.253 3.414-1.643 4.651-3.09s5.394-4.757 9.239-7.354 8.115-5.625 9.49-6.728 2.792-2.014 3.149-2.027 2.99-1.597 5.851-3.522 5.731-3.5 6.378-3.5c1.856 0 5.622-2.976 5.622-4.443 0-.731-1.629-2.103-3.621-3.048zM1525 445.997c-1.1-.288-2-.308-2-.045 0 1.034 2.799 3.203 3.381 2.621 1.132-1.132.641-2.047-1.381-2.575zm-28-366.71c-1.253 0-5 3.684-5 4.917 0 .504-.562 1.106-1.25 1.336-.976.328-.939 1.003.169 3.083 1.882 3.534 3.488 3.36 5.433-.586 1.797-3.645 2.175-8.75.648-8.75zm-39.953 667.807c-1.631 1.206-3.395 2.193-3.918 2.193s-2.057 1.313-3.407 2.918c-1.92 2.281-2.484 4.149-2.585 8.559-.072 3.103-.627 6.569-1.234 7.704s-.864 3.264-.57 4.732c.697 3.485-2.492 10.56-5.498 12.196-1.313.715-5.9 1.297-10.485 1.331-7.316.054-8.058.232-7.251 1.742.494.925 1.873 1.991 3.063 2.369s4.33 2.242 6.976 4.143c3.191 2.292 5.454 3.252 6.722 2.85 3.402-1.08 6.975-7.669 8.7-16.044l1.917-9c.148-.55.27-1.225.273-1.5s1.36-3.2 3.016-6.5c7.485-14.908 8.826-18.06 8.063-18.943-.491-.568-1.996-.07-3.781 1.25zM1448 504.518c-1.88-1.174-2-.999-2 2.914 0 4.1.03 4.136 2 2.353 1.1-.995 2-2.307 2-2.914s-.9-1.667-2-2.353zm-67.172 83.54c-.548.548-.837 2.062-.642 3.362.346 2.304.394 2.288 1.874-.635 1.495-2.953.717-4.677-1.232-2.728zm-50.198 50.525c-.617-.617-7.684 1.61-9.38 2.956-1.968 1.562-1.497 2.457 2 3.8l10.409 3.933c.343.033-2.563-10.222-3.029-10.688zm436.722 713.203c-.979 6.334-4.67 18.116-6.47 20.654-1.035 1.46-1.883 3.059-1.883 3.554 0 1.294-6.378 7.292-7.754 7.292-.637 0-3.473 1.365-6.302 3.033s-7.025 3.291-9.325 3.606c-3.696.507-4.567.213-7.506-2.533-1.829-1.708-3.727-3.106-4.219-3.106-.828 0-1.465 6.224-.869 8.5 1.669 6.38-7.616 21.402-13.275 21.477-.963.013-1.75.698-1.75 1.523s-.863 1.5-1.917 1.5-2.1.55-2.324 1.222c-.279.837-1.329.51-3.333-1.039-7.229-5.584-13.957-10.183-14.899-10.183-.565 0-1.095 1.013-1.179 2.25-.315 4.645-9.156 19.856-13.763 23.679-1.681 1.395-2.189 5.07-.701 5.07.486 0 1.131.788 1.434 1.75s1.283 3.75 2.179 6.195 2.021 7.17 2.502 10.5 1.351 8.26 1.936 10.955c.694 3.201.724 5.309.085 6.078-.605.729-.639 2.358-.089 4.277 2.197 7.66 3.072 37.356 2.482 84.245l-.761 63c-.138 13.277.869 25.753 3.35 41.5.52 3.3 1.19 10.725 1.49 16.5s1.007 12.975 1.571 16l1.884 10c.472 2.475.615 6.638.317 9.25-.494 4.341-.77 4.75-3.201 4.75-1.463 0-3.148.487-3.743 1.082-.776.776-1.611.776-2.95 0-2.656-1.538-7.639-3.462-9.16-3.537-.71-.035-1.678-.687-2.149-1.45-1.564-2.531-4.049-.396-4.215 3.623-.296 7.155-.542 8.85-1.568 10.813-2.647 5.063-2.271 44.606.476 50.068 1.049 2.085 5.268 14.208 8.493 24.4 1.131 3.575 2.235 8.75 2.454 11.5.381 4.788.25 5.094-3.077 7.212-2.813 1.79-4.394 2.103-8.298 1.641l-4.823-.571.148 13.359c.081 7.347.496 14.259.921 15.359 1.113 2.88 8.495 9.341 11.431 10.006 1.375.311 3.97 2.329 5.767 4.483 3.953 4.74 5.39 11.104 5.195 23.011l-.102 10.398c.021 1.044-.552 3.069-1.273 4.5-1.809 3.592-2.816 19.473-1.329 20.961.628.628 2.431 1.141 4.007 1.141 3.047 0 6.755 1.582 7.969 3.4 1.246 1.866.842 11.482-.631 15.007-1.337 3.199-2.543 4.339-12.492 11.801-2.717 2.037-5.003 4.833-6 7.336-.886 2.224-2.511 5.376-3.611 7.004-3.108 4.601-4.28 6.568-7.119 11.952-1.45 2.75-3.036 5.152-3.524 5.338s-1.758 2.211-2.822 4.5-3.532 6.378-5.485 9.088-3.55 5.452-3.55 6.095-.9 1.984-2 2.979-2 2.415-2 3.155-.429 1.345-.953 1.345-1.726 1.688-2.67 3.75-3.215 5.626-5.047 7.918-3.33 4.421-3.33 4.731c0 .968-6.924 11.436-8.007 12.106-.567.35-2.202 2.968-3.635 5.816-4.269 8.49-13.224 21.7-15.105 22.283a23.81 23.81 0 0 0-3.318 1.363c-.861.451-2.282.419-3.158-.071s-3.086-1.055-4.91-1.255c-5.181-.567-7.32-4.252-7.346-12.65-.014-4.824-.475-7.353-1.521-8.353-2.197-2.101-13.011-7.637-14.918-7.637-.9 0-2.569-.653-3.708-1.451-4.572-3.202-13.438-7.627-14.262-7.118-1.831 1.132-5.912-3.37-6.051-6.676-.475-11.321.334-27.383 1.753-34.768 1.264-6.58 2.076-11.431 2.597-15.503.212-1.659.929-5.032 1.592-7.496 1.949-7.24 2.088-8.098 2.69-16.619.316-4.472.279-9.703-.081-11.624-.627-3.342-.881-3.522-5.884-4.176-2.876-.376-7.157-1.332-9.513-2.126-4.934-1.662-11.215-1.91-11.215-.443 0 .55.399 1 .887 1s1.176 1.929 1.529 4.287c.727 4.848-.563 8.131-5.386 13.713-1.664 1.925-3.026 4.011-3.027 4.635s-1.127 1.872-2.502 2.773c-3.363 2.204-3.17 5.413.573 9.511 1.69 1.851 4.921 5.889 7.18 8.973s4.364 5.833 4.678 6.108 1.246 1.85 2.07 3.5 2.049 3.583 2.722 4.295c4.494 4.756 2.951 15.815-3.24 23.225-3.312 3.965-3.484 4.546-3.484 11.834 0 9.553-.81 10.216-13.702 11.202-6.41.491-9.693 1.196-10.821 2.324-.891.891-1.842 1.62-2.114 1.62-1.018 0-4.933-2.313-6.863-4.055-1.114-1.006-4.879-2.251-8.5-2.813-9.651-1.496-15.145-2.829-18.5-4.487-1.65-.816-4.125-1.632-5.5-1.814-2.322-.307-2.495-.04-2.426 3.749.071 3.921 6.883 20.42 8.431 20.42.379 0 1.096.874 1.592 1.943s3.167 4.331 5.934 7.25c8.113 8.557 9.468 10.702 9.468 14.987 0 5.756-3.759 9.292-8.805 8.283-2.032-.407-5.945-.894-8.695-1.083s-5.45-.914-6-1.612-2.717-2.551-4.816-4.119c-3.618-2.703-3.885-2.757-5.141-1.039-.729.997-1.853 4.305-2.498 7.351-3.415 16.125-10.847 34.834-20.713 52.137-2.383 4.179-4.332 8.117-4.332 8.75s-.461 1.152-1.025 1.152-1.461 1.148-1.994 2.55c-.93 2.445-6.256 5.3-8.481 4.546-.55-.186-2.968-.518-5.374-.737s-5.052-.778-5.88-1.241c-4.309-2.411-10.928-34.301-11.13-53.618-.046-4.4-.326-10.25-.622-13l-.91-8.5c-.532-5.004-2.528-12-3.423-12-.419 0-1.253.492-1.854 1.092s-3.278 1.216-5.95 1.367-7.783 1.019-11.358 1.93-11.598 2.208-17.828 2.883l-11.328 1.228-1.771 5c-.974 2.75-2.692 7.025-3.818 9.5-4.138 9.095-7.255 16.976-7.255 18.347 0 .774-.686 1.977-1.524 2.673s-1.301 1.488-1.029 1.76c.547.547-4.944 11.031-12.779 24.398-5.734 9.784-6.844 10.382-16.668 8.986-4.991-.709-6.112-1.378-12.111-7.223-7.935-7.732-11.445-12.413-12.328-16.441-.79-3.604-4.848-8.5-7.046-8.5-.869 0-3.213.682-5.209 1.516s-5.244 1.682-7.218 1.884-4.264.612-5.088.91c-3.548 1.282-19.85 3.684-21.279 3.135-.861-.331-1.812-1.241-2.112-2.024-.791-2.062-3.134-1.753-7.379.974-4.031 2.59-12.903 9.859-17.73 14.527-2.928 2.831-3.153 2.879-9.348 1.989-10.055-1.444-12.637-3.128-16.128-10.518-1.663-3.52-3.024-6.594-3.024-6.831 0-1.13-6.407-10.564-7.174-10.564-.481 0-1.303-1.125-1.826-2.5s-1.637-2.5-2.475-2.5-1.525-.675-1.525-1.5-.231-1.5-.513-1.5-3.463 2.878-7.069 6.396c-6.542 6.383-10.387 8.226-13.59 6.512-2.487-1.331-3.033-4.123-1.768-9.043 2.037-7.923 1.82-13.016-.73-17.094-1.282-2.051-2.331-4.158-2.331-4.683 0-2.284-16.363-13.059-17.74-11.681-.216.216.16 4.007.836 8.424 1.094 7.146 1.035 8.561-.54 12.85-3.041 8.285-5.879 14.32-6.734 14.32-.452 0-.822.43-.822.956s-1.125 2.613-2.5 4.639c-3.028 4.463-3.081 5.763-.464 11.467 3.782 8.244 2.812 7.612 15.36 10.012 5.11.978 6.609 1.835 11.25 6.44 2.966 2.943 5.355 6.217 5.355 7.34 0 1.115.5 2.337 1.112 2.715 1.633 1.009.22 9.964-2.514 15.931-1.26 2.75-3.985 7.207-6.055 9.904a183.47 183.47 0 0 0-7.059 10c-1.812 2.803-4.936 6.866-6.942 9.03s-3.978 4.523-4.381 5.244c-2.926 5.229-37.122 39.455-54.994 55.043l-7.258 6.395c-1.609 1.439-4.093 3.464-5.52 4.5s-4.686 3.49-7.242 5.452-6.272 4.317-8.259 5.232-4.179 2.347-4.873 3.182-1.923 1.518-2.733 1.518-2.893.739-4.627 1.643l-4.911 2.513c-.966.478-3.974 1.081-6.684 1.339-5.979.569-12.674 3.125-14.336 5.472-.673.95-3.923 4.768-7.223 8.485s-6.45 7.574-7 8.572c-.914 1.658-4.48 5.476-13.987 14.977-1.926 1.925-3.505 3.838-3.508 4.25s-.68.75-1.505.75-1.505.563-1.511 1.25c-.023 2.462-7.254 4.911-13.21 4.474-4.651-.341-6.045-.906-8.186-3.318-1.419-1.598-2.814-4.031-3.1-5.406s-1.228-5.2-2.095-8.5-1.826-7.35-2.133-9c-.749-4.03-3.125-7.5-5.137-7.5-1.516 0-7.128-7.884-7.128-10.013 0-.9-3.816-9.856-6.385-14.987-.807-1.611-1.939-2.393-3.183-2.198-7.018 1.096-12.181.734-15.581-1.094-6.52-3.506-7.55-8.253-7.963-36.707-.164-11.288-2.519-23.036-4.915-24.517-.535-.331-.972-1.673-.972-2.983s-.411-2.636-.913-2.946-1.233-2.457-1.624-4.771-1.178-4.955-1.75-5.871c-1.489-2.385.722-12.47 3.7-16.871 2.719-4.019 4.587-11.795 4.587-19.098 0-13.556 4.034-29.822 10.053-40.538 2.523-4.492 2.272-7.989-.553-7.705-1.1.111-9.332 1.33-18.292 2.709-16.268 2.504-17.406 2.487-23.708-.353-1.1-.496-3.237-1.17-4.75-1.498s-2.75-1.226-2.75-1.994-.507-1.567-1.127-1.773-1.352-2.832-1.626-5.833-.843-5.908-1.262-6.458c-.751-.984.191-13.413 1.572-20.75.616-3.276.463-3.75-1.214-3.75-1.056 0-3.685.9-5.842 2s-4.418 2-5.023 2-2.066.9-3.247 2-2.614 2-3.186 2-2.782 1.575-4.913 3.5-4.35 3.5-4.931 3.5-1.709.651-2.505 1.447-3.191 2.437-5.321 3.646c-13.083 7.424-16.222 8.143-24.739 5.668-6.31-1.834-8.58-4.796-8.628-11.261-.049-6.473-.971-7.884-4.632-7.09-6.527 1.416-8.184 1.642-14.875 2.025-3.85.22-8.873.714-11.162 1.097-3.511.587-4.446.365-5.972-1.418-2.465-2.879-4.711-2.66-9.992.974-4.949 3.405-23.586 12.913-25.311 12.913-.599 0-1.871.419-2.826.932-3.271 1.755-17.096 7.068-18.417 7.078-2.377.018-11.264 4.648-13.82 7.2-1.375 1.373-4.525 3.755-7 5.293s-4.725 3.1-5 3.472-3.2 1.992-6.5 3.601-6.225 3.195-6.5 3.526c-3.511 4.217-18.778 8.685-20.447 5.984-.379-.613-2.291-1.784-4.248-2.602-3.219-1.345-4.68-1.296-15.293.515-6.454 1.101-13.484 2.017-15.623 2.035-4.026.034-5.794.593-25.889 8.187-6.6 2.494-13.575 4.874-15.5 5.289s-5.796 1.803-8.602 3.085-6.856 2.759-9 3.283-6.148 1.599-8.898 2.389c-18.444 5.299-19.546 5.913-17.496 9.742.548 1.024.996 3.205.996 4.846 0 3.968-4.876 6.999-13.14 8.167-5.144.727-6.836 1.501-10.224 4.676-2.233 2.093-4.705 4.705-5.493 5.805-3.848 5.367-28.425 28.53-30.9 29.121-1.508.36-3.216 1.025-3.796 1.477-1.139.888-11.563.495-17.798-.671-2.119-.396-4.911-1.779-6.205-3.073s-3.386-2.351-4.648-2.35-4.095-.873-6.295-1.944-8.275-2.683-13.5-3.584c-13.538-2.333-29.196-6.191-32.915-8.112-2.891-1.493-6.629-.899-14.305 2.273-4.352 1.798-7.597 2.364-13.568 2.364-7.44 0-17.595-2.113-19.662-4.091-.522-.5-1.709-.909-2.638-.909s-3.977-1.575-6.776-3.5-5.497-3.5-5.996-3.5c-1.293 0-2.027-4.713-.909-5.832.956-.956 1.193-19.671.268-21.168-.281-.454-2.421-1.172-4.755-1.595-5.715-1.034-5.995-1.079-7.921-1.254-.922-.084-1.822-.859-2-1.723s-2.798-2.554-5.823-3.755c-4.108-1.631-5.581-2.753-5.82-4.429-.176-1.235.162-2.245.75-2.245s1.07-1.35 1.07-3 .397-3 .883-3 1.157-.787 1.491-1.75 1.939-4.172 3.566-7.133 3.266-6.779 3.641-8.486 1.221-3.559 1.88-4.117c2.481-2.099 5.498-15.356 5.965-26.21.319-7.415 2.739-18.248 4.648-20.804.411-.55 1.056-2.658 1.435-4.685s1.544-4.459 2.589-5.405 1.901-2.326 1.901-3.065.417-1.345.927-1.345c.836 0 5.623-9.051 6.082-11.5.103-.55.596-1.762 1.094-2.694s.98-3.562 1.069-5.846c.094-2.408.722-4.367 1.495-4.663.762-.292 1.332-2.024 1.332-4.044 0-4.094 2.126-6.174 6.357-6.221 2.178-.024 2.715.337 2.261 1.52-.327.854-.188 1.3.309.993 1.757-1.086 5.825 1.334 6.454 3.84 1.608 6.408 5.79 8.36 19.618 9.157 30.305 1.748 30.962 1.72 38.658-1.623 7.177-3.118 8.294-4.388 8.328-9.469.01-1.128.512-2.548 1.121-3.157 1.181-1.181 5.203-12.605 6.375-18.11.389-1.824 1.336-4.524 2.106-6s1.402-3.38 1.406-4.233.546-2.09 1.206-2.75.875-1.2.477-1.2c-.96 0 4.713-10.496 12.835-23.744 1.094-1.784 2.578-3.246 3.298-3.25s1.029-.459.687-1.013.306-2.311 1.441-3.904 2.063-3.219 2.063-3.611 1.378-2.348 3.061-4.346c5.873-6.968 7.472-8.975 12.439-15.613 2.75-3.675 6.462-8.229 8.25-10.119s3.25-3.848 3.25-4.351.9-1.2 2-1.549 2-1.054 2-1.567.659-.933 1.465-.933 1.914-.838 2.462-1.863c.635-1.186 2.557-2.078 5.285-2.454 3.598-.495 4.55-.25 5.916 1.528 1.786 2.323 1.751 9.346-.071 14.137-.813 2.138-.729 2.841.39 3.271.784.301 1.181 1.185.882 1.964s-.026 1.417.607 1.417 2.368 1.162 3.857 2.581 5.154 3.722 8.145 5.116c4.561 2.126 6.312 2.432 10.855 1.898 6.364-.748 8.889-1.903 11.967-5.473 3.178-3.686 7.529-12.925 6.881-14.613-.368-.959-2.555-1.507-6.828-1.71l-6.287-.299-.676-3.5c-.372-1.925-.979-4.46-1.35-5.633-.533-1.689.11-2.731 3.085-5 3.72-2.838 3.93-2.872 20.836-3.382 11.011-.333 17.339-.155 17.813.5.463.641.74.554.75-.234a1.28 1.28 0 0 1 1.265-1.254c.688 0 3.889-1.318 7.115-2.924s6.43-2.704 7.121-2.439 1.525-.219 1.854-1.075c.346-.903 1.788-1.557 3.429-1.557 1.557 0 3.341-.509 3.963-1.132 1.279-1.279 5.012-1.768 17.268-2.262 4.675-.188 10.742-.877 13.483-1.531s6.347-1.071 8.014-.927 3.59-.084 4.273-.507 4.727-1.009 8.986-1.304 8.418-1.11 9.243-1.81 3.142-1.568 5.149-1.927 4.778-1.541 6.158-2.627 2.965-1.974 3.522-1.974 1.308-1.344 1.669-2.986c1.252-5.7 11.518-9.949 16.978-7.027 2.507 1.342 11.525.609 11.525-.937 0-.778 5.704-2.366 9-2.505.825-.035 2.4-.573 3.5-1.195s6.275-2.573 11.5-4.335c11.498-3.877 23-9.027 23-10.299 0-.511.675-.671 1.5-.354s1.5.14 1.5-.393 1.302-.969 2.893-.969c1.701 0 3.14-.644 3.493-1.563.33-.86 1.014-1.307 1.521-.994s3.9-.122 7.541-.966c5.891-1.366 16.493-1.81 35.139-1.472 3.463.063 5.498-.402 6.372-1.456.707-.852 2.328-1.548 3.604-1.548s2.601-.457 2.947-1.016.994-.79 1.441-.514 1.95-.391 3.339-1.484 3.467-1.986 4.618-1.986c1.233 0 2.092-.644 2.092-1.567 0-1.03.6-1.384 1.75-1.031 4.868 1.492 19.471 3.291 24.846 3.06 6.765-.291 9.812-1.523 22.921-9.27l10.483-6.183c.825-.481 3.401-1.692 5.724-2.691s4.236-2.427 4.25-3.174.616-1.13 1.337-.854 2.409-.34 3.75-1.371 2.946-1.884 3.566-1.896 1.688-.697 2.372-1.522 2.09-1.5 3.122-1.5 1.878-.406 1.878-.902 1.237-1.398 2.75-2.003 4.1-1.967 5.75-3.025 3.64-1.957 4.421-1.997 2.132-.664 3-1.386 3.604-2.16 6.079-3.196 5.652-2.665 7.061-3.621 3.771-2.041 5.25-2.412 2.689-1.151 2.689-1.733.289-.77.641-.417c.653.653 9.58-3.905 14.473-7.389 1.482-1.055 3.101-1.918 3.597-1.918 1.569 0 14.572-6.841 15.328-8.064.858-1.389 6.824-2.242 8.96-1.282.825.371 1.725.75 2 .844s1.625.638 3 1.209c5.51 2.29 9.045 2.465 14.579.725 4.064-1.278 5.906-2.469 6.953-4.495.784-1.516 1.997-2.949 2.696-3.185.904-.305 1.218-2.675 1.089-8.216-.167-7.154-.061-7.614 1.307-5.662 2.083 2.974 3.116 2.678 5.659-1.625 3.106-5.256 2.772-14.507-.657-18.189-1.312-1.408-2.68-4.224-3.041-6.256-1.096-6.173 3.646-21.662 10.349-33.804.455-.825 1.824-3.75 3.041-6.5 3.476-7.854 11.963-24.569 14.876-29.298l7.398-11.781c2.612-4.116 4.75-7.949 4.75-8.519s-1.235-2.655-2.745-4.635c-2.283-2.993-2.727-4.54-2.64-9.183.109-5.802 3.152-17.423 6.526-24.923 1.073-2.386 2.403-6.436 2.954-9l1.816-8.393c.447-2.053 1.286-4.303 1.863-5s3.165-5.318 5.75-10.268c9.376-17.953 18.966-33.5 20.663-33.5.474 0 1.287-1.013 1.806-2.25s2.196-3.911 3.725-5.941l6.204-8.5c5.095-7.158 12.64-15.778 21.232-24.256 8.76-8.644 13.055-12.016 16.032-12.59 1.148-.221 2.813-1.022 3.7-1.781 5.034-4.304 16.626-4.385 20.148-.14 2.729 3.289.748 24.49-4.195 44.891-2.053 8.473-2.078 9.088-.483 11.867 1.937 3.374 4.022 16.295 2.911 18.031-.411.642-1.041 4.093-1.4 7.668-.86 8.558-2.19 13.552-6.659 25-3.634 9.309-3.709 9.775-3.709 23.167 0 7.517.27 13.937.601 14.268s1.788-.015 3.239-.767c1.991-1.033 4.049-1.15 8.399-.478 6.43.994 8.263 2.635 10.348 9.262.7 2.226 1.602 4.498 2.003 5.048s1.717 4.063 2.925 7.806c2.195 6.806 2.196 6.806 5.34 6.119 1.73-.378 5.17-2.653 7.645-5.056s5.063-4.369 5.75-4.369 1.25-.372 1.25-.825c0-.921 12.292-9.826 21.5-15.575 3.3-2.06 8.025-5.258 10.5-7.107s4.984-3.39 5.576-3.427 2.065-1.119 3.274-2.406c2.028-2.159 2.115-2.758 1.123-7.75-.591-2.976-1.485-6.406-1.985-7.622-1.065-2.59.544-8.113 2.938-10.085.866-.713 6.975-4.928 13.575-9.365s13.206-9.412 14.68-11.055 3.115-2.719 3.645-2.391c1.213.75 2.296-1.911 1.559-3.831-.903-2.354 1.566-12.198 3.666-14.62 1.072-1.236 1.949-2.623 1.949-3.083s3.487-4.361 7.75-8.669l12.396-12.761c5.807-6.159 12.218-11.373 17.149-13.947 6.978-3.642 9.021-5.848 9.331-10.072.523-7.118 1.485-10.625 4.058-14.789 3.354-5.429 11.586-12.821 17.815-15.996 8.298-4.23 18.42-8.623 19.869-8.623 2.414 0 12.014-4.27 15.991-7.113 3.652-2.611 11.489-9.887 16.352-15.182l2.212-2.409-2.022-2.17c-1.112-1.194-2.467-3.447-3.011-5.008-1.271-3.647 1.571-8.78 6.909-12.48 3.415-2.366 4.209-2.516 9.186-1.729 6.412 1.014 7.617.694 8.401-2.228.947-3.532.696-13.563-.387-15.444-.55-.955-1.434-2.961-1.965-4.458-.638-1.799-1.91-2.924-3.75-3.318-9.127-1.954-11.226-2.934-12.884-6.013-1.209-2.245-1.462-3.975-.884-6.046.445-1.595.719-3.449.61-4.119s.707-2.995 1.815-5.167c2.827-5.541 4.383-16.97 3.811-27.992-.489-9.415-.309-10.353 4.084-21.333.596-1.49 1.901-3.527 2.9-4.526 2.658-2.658 6.321-12.67 7.78-21.264.7-4.125 1.371-7.5 1.491-7.5s.378-4.439.573-9.865c.324-8.992.137-10.256-2.112-14.285-1.357-2.431-2.468-5.215-2.468-6.185s-.444-2.208-.986-2.751c-2.041-2.041-5.101-17.378-5.968-29.914-.638-9.219-1.621-15.181-3.38-20.5-1.364-4.125-2.807-9.3-3.205-11.5-.928-5.126-3.73-16.065-6.405-25-3.136-10.475-9.405-33.739-9.836-36.5-.043-.275-.602-1.85-1.243-3.5s-1.28-3.9-1.42-5-1.786-5.6-3.656-10c-3.035-7.141-3.384-8.898-3.248-16.37.157-8.614 2.426-16.13 4.87-16.13.67 0 2.249-1.503 3.508-3.34s3.904-4.424 5.879-5.749 4.137-2.859 4.805-3.41c3.142-2.588 4.096-3.239 8.58-5.848 5.464-3.18 5.511-4.115.567-11.333-1.575-2.299-2.863-5.085-2.863-6.191s-.392-2.253-.871-2.549c-.742-.458-2.095-4.638-2.616-8.08-2.075-13.721-1.957-13.502-7.331-13.485-2.575.01-7.532.687-11.016 1.508s-6.729 1.248-7.214.948-3.71.201-7.167 1.113-9.607 1.606-13.665 1.544c-6.555-.101-7.644-.399-9.75-2.672-1.869-2.017-2.367-3.658-2.354-7.757.015-4.596.354-5.433 2.919-7.224 1.596-1.114 5.957-4.939 9.689-8.5 8.77-8.366 19.469-16.975 21.097-16.975.702 0 1.278-.562 1.28-1.25 0-1.209 10.248-9.727 11.753-9.772.409-.012 1.868-.902 3.243-1.978s3.175-1.976 4-2 3.075-1.905 5-4.179 4.287-4.839 5.25-5.7 1.75-1.867 1.75-2.235c0-1.434-5.114-1.841-9.991-.795-6.133 1.315-9.65.615-10.509-2.094-.349-1.099-1.224-1.998-1.944-1.998-2.324 0-3.688-2.582-2.714-5.138.865-2.271 2.325-7.085 5.718-18.862.872-3.025 2.002-6.281 2.513-7.236s.928-2.537.928-3.515.9-3.458 2.001-5.511 1.921-4.071 1.823-4.485c-.362-1.534 2.24-9.07 3.929-11.379 2.737-3.742 4.247-6.713 4.247-8.36 0-.832.45-1.514 1-1.514s1-.608 1-1.351 2.362-3.723 5.25-6.623c7.698-7.73 9.198-9.026 10.452-9.026.622 0 1.298-.498 1.5-1.106s1.784-1.177 3.514-1.264 3.437-.45 3.794-.806c.818-.818 9.541 2.014 11.328 3.678.976.908 2.455.995 5.46.32 8.407-1.889 14.701 1.242 14.701 7.313 0 1.944.444 1.724 3.75-1.853 3.785-4.096 6.468-5.235 13.728-5.827 2.188-.178 4.146-.827 4.351-1.442 1.333-4 11.39-9.952 16.878-9.99 2.733-.019 3.57.607 5.655 4.228 1.346 2.338 3.248 6.95 4.226 10.25 2.496 8.421 7.023 14.283 17.375 22.5 2.425 1.925 5.502 4.712 6.838 6.194s4.109 3.859 6.164 5.282c4.635 3.212 7.329 2.465 11.891-3.295 6.285-7.935 5.213-12.516-4.362-18.641-3.022-1.933-5.495-3.933-5.495-4.443s-2.065-3.104-4.588-5.763c-5.025-5.295-8.071-11.241-9.051-17.672-.349-2.289-1.06-4.702-1.579-5.363-2.528-3.212-.353-16.88 3.469-21.799 2.198-2.829 5.776-8.771 7.326-12.168 2.652-5.813 6.171-10.148 10.41-12.824 2.612-1.649 4.22-3.622 5.062-6.212 2.046-6.291 6.68-11.822 12.422-14.826 4.758-2.489 5.962-2.71 11.575-2.124 9.601 1.004 19.534 6.32 30.606 16.38a226.72 226.72 0 0 0 7.848 6.773c2.033 1.65 5.947 5.138 8.699 7.75s5.332 4.75 5.733 4.75 1.332 1.125 2.068 2.5 1.772 2.5 2.303 2.5c1.24 0 5.54 4.97 6.271 7.25.309.963 1.013 1.75 1.565 1.75 1.678 0 3.706 2.572 5.436 6.894.903 2.258 2.269 4.106 3.034 4.106s1.391.845 1.391 1.878.602 2.377 1.337 2.987c3.745 3.109 4.49 18.982 1.328 28.303-.808 2.383-1.768 6.357-2.132 8.832-.657 4.463-.62 4.537 4.554 9l7.065 6.25c1.017.963 2.298 1.75 2.848 1.75s1 .689 1 1.531.675 1.79 1.5 2.107 1.5 1.202 1.5 1.969 1.8 3.193 4 5.393 4 4.449 4 4.997 1.619 2.789 3.597 4.978 4.503 5.678 5.611 7.753l3.477 6.522c.804 1.513 1.879 2.75 2.389 2.75s.927.822.927 1.826 1.094 2.853 2.43 4.109 2.721 4.003 3.077 6.11 1.504 4.868 2.551 6.141l2.697 3.314c.436.55 3.606 6.625 7.043 13.5l7.132 14c1.508 2.565 10.068 20.75 10.068 21.389 0 .333 1.31 3.419 2.91 6.858 6.513 13.992 10.768 35.248 8.066 40.296-1.002 1.873-.939 3.206.339 7.13 2.62 8.046 5.852 24.406 10.237 51.827 1.495 9.35 3.049 17.45 3.451 18 .627.856 4.538 12.878 9.598 29.5 3.169 10.411 7.398 26.09 7.398 27.427 0 .793.52 2.709 1.156 4.257 1.189 2.895 6.628 22.239 7.26 25.822.195 1.104 1.253 5.154 2.352 9 4.022 14.076 7.537 31.093 8.778 42.493.389 3.575 1.347 9.875 2.128 14 1.943 10.251 1.99 10.566 2.78 18.5l1.185 11c.708 5.802 1.258 37.469.712 41zm-25.799-26l-2.542-24c-.565-4.95-1.256-10.125-1.536-11.5s-.736-4.3-1.012-6.5-1.157-7.799-1.958-12.442-1.258-8.64-1.016-8.881-.01-1.276-.555-2.299-2.097-6.204-3.444-11.515c-3.409-13.44-3.794-13.609-5.359-2.363-.574 4.125-1.726 11.293-2.56 15.928s-1.494 11.934-1.466 16.219-.247 8.272-.611 8.861-.771 4.54-.904 8.781-.747 8.648-1.362 9.793c-1.298 2.415-.512 20.215.976 22.103.514.652 2.246 1.474 3.849 1.826 2.425.533 3.151 1.434 4.319 5.368 3.095 10.423 11.887 27.194 13.441 25.64.891-.891 2.779-18.016 2.593-23.52-.083-2.475-.467-7.65-.853-11.5zm-46.489-98.835c-.586-.586-1.065-1.814-1.065-2.73s-.824-2.738-1.83-4.05-2.427-4.635-3.155-7.385-1.657-5.45-2.062-6-1.53-3.925-2.498-7.5-2.614-8.3-3.657-10.5c-1.645-3.47-4.623-10.828-7.895-19.51-1.563-4.148-1.255-23.764.527-33.49 3.11-16.977 4.376-53.462 2.151-62-1.246-4.781-1.44-4.986-4.442-4.675-3.374.35-3.526.034-3.164-6.575.098-1.788-.264-3.25-.804-3.25s-2.168-2.025-3.619-4.5-3.068-4.5-3.595-4.5-.96-.788-.962-1.75c-.01-2.55-4.132-12.172-7.022-16.378-1.371-1.995-4.513-5.27-6.983-7.278-8.234-6.692-14.991-14.166-14.991-16.582 0-1.251-3.293-9.076-5.541-13.167-.802-1.46-1.459-3.29-1.459-4.067 0-2.179-5.854-13.118-7.52-14.05-.814-.456-1.48-1.426-1.48-2.156s-.675-1.888-1.5-2.573c-1.137-.944-1.5-3.502-1.5-10.578 0-8.573-.244-9.748-3-14.422-1.65-2.798-3-5.503-3-6.01 0-1.295-3.181-8.188-4.611-9.99-.655-.825-2.413-4.425-3.907-8-3.296-7.885-8.07-14.736-11.507-16.513-1.817-.94-3.217-3.222-4.898-7.982-2.091-5.923-2.284-7.762-1.726-16.49.345-5.403 1.082-11.019 1.637-12.481 1.443-3.796-.6-10.992-4.12-14.512-1.577-1.577-2.867-3.118-2.867-3.424s-1.798-2.928-3.996-5.827-3.998-5.778-4-6.4c-.01-2.418-7.673-8.955-12.028-10.26-2.453-.735-5.351-1.961-6.441-2.724-3.149-2.206-4.316-1.653-4.984 2.363-1.448 8.702-.902 18.687 1.422 26 1.267 3.987 2.692 7.25 3.165 7.25s.861 1.28.861 2.845c0 1.575.893 3.653 2 4.655 1.1.995 2 2.478 2 3.295 0 1.878 4.014 10.162 6 12.38.825.922 3.068 4.297 4.985 7.5s4.037 6.401 4.711 7.106c2.121 2.219 2.525 7.475.876 11.406-1.89 4.506-10.48 10.527-17.943 12.575l-8.128 2.249-8 2.164c-4.387 1.161-5.061 1.692-5.5 4.33-.729 4.384-2.947 6.99-8.432 9.906-6.657 3.539-11.19 3.401-15.318-.468-1.788-1.675-3.25-3.456-3.25-3.957s-1.78-1.39-3.955-1.976c-4.335-1.167-8.664-4.391-14.045-10.458-1.925-2.17-4.427-4.87-5.561-6s-2.684-3.597-3.445-5.482c-2.509-6.214-9.213-15.21-13.892-18.644-5.62-4.125-6.655-4.197-8.867-.624-1.843 2.976-7.389 10.012-10.769 13.66-1.118 1.207-2.653 4.072-3.41 6.366s-1.652 4.171-1.989 4.171c-1.263 0-4.1 6.694-5.085 12-.562 3.025-1.462 5.65-2.002 5.833s-.98 1.389-.98 2.679-.672 3.018-1.495 3.84-1.638 2.435-1.814 3.585-.853 2.624-1.505 3.277-1.186 1.97-1.186 2.927-.379 1.975-.841 2.261c-.767.474-4.327 8.832-10.142 23.809-1.219 3.141-2.847 6.234-3.617 6.873s-1.4 2.013-1.4 3.053c0 1.993-1.654 5.366-3.75 7.647-2.19 2.383-1.365 3.902 3.033 5.581 2.356.9 4.817 1.636 5.47 1.636 1.314 0 5.294 2.144 12.535 6.752 4.949 3.15 15.649 13.102 15.689 14.593.013.465.98 2.189 2.149 3.832 1.827 2.566 2.061 3.995 1.665 10.154-.254 3.943-1.098 8.357-1.876 9.809-2.497 4.661-9.173 9.264-17.214 11.87-5.926 1.92-7.54 2.833-7.053 3.99.347.825.848 5.424 1.113 10.219.365 6.599.088 9.704-1.139 12.77-.892 2.228-1.621 5.772-1.621 7.875s-.889 6.482-1.975 9.73-1.989 6.805-2.006 7.905-.703 3.289-1.525 4.864-1.494 3.944-1.494 5.264-.424 3.181-.941 4.136-1.608 6.686-2.423 12.736c-1.672 12.416-1.196 14.555 3.864 17.345 1.65.91 3.15 1.992 3.333 2.405s.924.75 1.646.75c1.479 0 4.787 3.899 10.182 12 2.014 3.025 3.985 5.725 4.378 6s1.035 2.412 1.426 4.75 1.044 4.25 1.452 4.25c1.608 0 5.046 9.853 5.584 16 .313 3.575.058 10.1-.565 14.5-1.386 9.784-1.406 10.535-.607 23 .358 5.588.194 12.427-.372 15.5l-1.532 9c-.285 1.925-1.718 5.975-3.185 9s-2.753 6.175-2.857 7c-.377 2.982-1.634 6-2.499 6-.486 0-.883.81-.883 1.8s-.396 2.227-.879 2.75-1.418 2.638-2.077 4.7-1.578 3.75-2.041 3.75-1.156 1.462-1.538 3.25-1.192 3.865-1.798 4.616c-1.327 1.644-3.527 7.329-4.695 12.134-3.356 13.807-5.276 24.346-5.714 31.369-.562 9.012-.047 10.091 5.274 11.045 1.633.293 6.259 2.222 10.28 4.286 7.571 3.887 8.549 5.078 11.211 13.642.837 2.692.879 4.157.14 4.896-.58.58-.79 2.374-.467 3.987.908 4.537-2.776 19.935-5.52 23.073-.865.989-1.675 2.5-1.801 3.358s-1.162 2.429-2.302 3.491-2.084 2.701-2.098 3.642c-.034 2.234-7.918 7.501-15.388 10.278-3.357 1.249-7.132 3.546-8.733 5.316l-4.183 4.617a57.73 57.73 0 0 1-2.995 3c-.897.825-3.589 3.638-5.982 6.25-2.542 2.775-5.223 4.75-6.449 4.75-1.355 0-2.656 1.117-3.671 3.154-2.157 4.324-2.081 4.531 2.177 5.879 2.063.653 4.2 1.729 4.75 2.389s1.78 1.494 2.733 1.852c1.356.509 1.596 1.365 1.106 3.938-.985 5.167-4.202 10.786-6.724 11.745-1.267.482-3.043 1.615-3.946 2.518s-3.821 1.986-6.485 2.408c-4.303.68-17.332 5.918-24.183 9.721-1.375.763-4.975 2.606-8 4.095s-5.725 2.999-6 3.355-1.433 1.138-2.573 1.737c-1.465.77-2.688 3.382-4.171 8.9-3.939 14.664-8.124 24.743-12.097 29.134-2.078 2.297-4.105 4.176-4.503 4.176s-2.043 1.35-3.656 3-3.398 3-3.966 3-1.034.642-1.034 1.427-1.012 2.248-2.25 3.25-3.145 3.521-4.24 5.596-3.761 5.225-5.926 7c-4.678 3.835-9.194 8.369-16.381 16.448-5.195 5.839-5.303 6.088-5.599 12.895-.166 3.817-.891 8.728-1.611 10.912-1.485 4.507-5.076 10.441-6.33 10.459-1.034.015-9.937 9.14-14.663 15.027-6.208 7.733-36.299 37.584-43 42.658-10.129 7.668-16.008 11.38-18.967 11.971-1.993.399-3.563 2.012-5.876 6.04-1.736 3.023-3.157 5.906-3.157 6.406s-.345.91-.767.91-3.1 2.04-5.95 4.534c-4.901 4.287-5.569 4.56-12.264 5.001-5.677.375-7.195.17-7.657-1.034-.317-.826-.978-1.501-1.469-1.501-.977 0-4.893-3.655-4.893-4.567 0-.312-1.116-2.03-2.48-3.819-3.219-4.22-5.162-9.844-5.898-17.067-.325-3.193-1.161-6.495-1.857-7.339-1.718-2.082-8.327-4.858-13.597-5.711-2.383-.386-5.533-1.328-7-2.093s-3.136-1.395-3.707-1.398c-1.739-.01-8.169-8.395-8.854-11.547-.354-1.628-.857-6.546-1.119-10.93-.664-11.149-2.69-17.208-7.456-22.304-3.985-4.261-3.995-4.293-3.381-10.5.819-8.279 2.55-16.469 6.916-32.726 1.994-7.425 3.994-15.525 4.443-18s1.263-5.655 1.808-7.066 1.143-4.111 1.329-6c.321-3.26.191-3.418-2.57-3.12-3.703.399-10.487 3.829-13.079 6.612-1.829 1.964-4.387 5.516-6.988 9.704-.557.896-2.85 4.046-5.096 7-5.773 7.592-6.517 12.556-2.124 14.178 2.132.787 5.655 8.108 5.686 11.816.022 2.574-4.136 11.093-6.685 13.697-.711.727-1.293 1.806-1.293 2.397s-1.667 3.11-3.704 5.596c-4.569 5.576-5.053 9.484-1.717 13.869 1.332 1.751 2.422 3.448 2.422 3.771s1.118 2.278 2.485 4.342c2.123 3.209 2.439 4.695 2.17 10.229-.173 3.561-1.313 9.849-2.534 13.974-4.194 14.178-5.128 17.52-7.142 25.571-2.457 9.823-7.595 19.775-13.458 26.071-3.093 3.321-5.163 6.923-7.058 12.279-1.475 4.168-3.577 8.859-4.672 10.424-2.452 3.505-2.555 8.552-.254 12.448 3.043 5.151 1.459 8.823-6.813 15.8-3.973 3.351-8.297 6.726-9.61 7.5s-3.75 2.622-5.416 4.106c-2.559 2.279-2.829 2.939-1.741 4.25 1.837 2.214 5.045 1.925 10.433-.94 2.578-1.371 6.007-2.725 7.619-3.009 2.49-.439 3.165-.064 4.487 2.493.856 1.655 1.884 3.009 2.286 3.009s1.258 1.687 1.903 3.75c.959 3.064.912 4.039-.255 5.329-.786.868-1.429 1.95-1.429 2.404 0 .929-7.42 7.483-10.21 9.017-1 .55-5.219 2.765-9.375 4.923-7.163 3.718-11.694 8.252-13.649 13.655-.362 1-3.393 2.242-8.279 3.393-5.484 1.291-9.047 2.842-12.347 5.372-7.024 5.385-15.567 10.575-26.639 16.182l-11.5 5.887c-2.166 1.187-7.492 3.002-15.5 5.282-3.85 1.096-8.125 2.651-9.5 3.455-9.841 5.754-17.212 7.454-36.5 8.419-9.35.468-23.909 1.914-32.352 3.214-12.009 1.849-18.106 2.274-28 1.95l-15.148-.373c-2.574.041-13.475 5.483-14.586 7.281-.343.555.436 2.137 1.731 3.516s2.234 2.697 2.087 2.93.015 1.553.362 2.932c.769 3.065-1.031 5.483-4.081 5.483-1.233 0-3.387.9-4.785 2s-3.104 2-3.79 2-2.723 1.125-4.526 2.5c-3.375 2.575-5.411 3.177-5.411 1.601 0-1.038-9.003-2.051-10.5-1.182-.55.319-11.575.708-24.5.863-28.753.345-41.764.838-53.5 2.027-4.95.502-10.35.714-12 .471-3.575-.525-28.511 2.269-33.5 3.754-8.988 2.675-29.093 5.881-31.393 5.006-2.803-1.066-5.868-.408-10.311 2.213-1.762 1.039-7.837 3.212-13.5 4.828s-13.896 4.669-18.296 6.786l-11 5.248c-6.574 3.068-16.543 9.139-17.338 10.559-.463.828-1.252 1.477-1.752 1.444-2.307-.154-8.469 2.111-11.691 4.297-1.955 1.327-5.279 3.239-7.387 4.248l-3.832 1.836 2.891.33c1.59.182 3.196-.162 3.568-.765s2.834-1.256 5.471-1.454 5.089-.753 5.448-1.235 2.139-2.226 3.956-3.877c3.007-2.731 3.391-2.843 4.284-1.25.54.963 1.634 1.75 2.431 1.75s1.45.675 1.45 1.5c0 1.348 1.177 1.94 3.231 1.625.402-.062 1.459.998 2.348 2.355 1.512 2.307 1.485 2.681-.417 5.759-1.999 3.235-7.228 7.762-8.966 7.762-.487 0-1.662.858-2.612 1.907-1.601 1.769-1.612 2.244-.155 6.535 2.159 6.36 2.034 7.161-1.701 10.897-5.435 5.435-5.072 5.463-25.749-1.989-7.608-2.742-12.979-3.094-12.979-.85 0 3.162-1.909 1.29-3.466-3.398-2.826-8.508-9.143-10.85-34.034-12.619-10.284-.73-10.559-.509-15.554 12.516-2.26 5.892-6.959 10.961-13.196 14.234-2.062 1.082-3.75 2.598-3.75 3.367s-.675 1.399-1.5 1.399c-.833 0-1.5.889-1.5 2 0 1.1-.488 2-1.083 2s-.888.563-.648 1.25-.812 3.079-2.336 5.313-3.094 5.784-3.489 7.887-1.443 4.559-2.33 5.458-2.229 3.38-2.982 5.513-2.665 5.146-4.25 6.695-2.881 3.509-2.881 4.357c0 2.002 4.407 5.814 7.218 6.243 1.207.184 2.506.838 2.886 1.453s1.598.881 2.707.591c2.556-.668 3.717 2.855 1.629 4.943-.792.792-1.441 2.308-1.441 3.369 0 1.651-.754 1.938-5.25 1.995-12.832.161-23.751-.241-29.915-1.103-6.846-.957-8.094-.676-15.923 3.583-3.522 1.916-11.439 2.485-17.012 1.222-3.913-.887-6.172-.649-15.13 1.595-15.206 3.808-19.76 3.42-18.932-1.613.469-2.849-2.777-2.039-3.925.98-.571 1.501-1.541 3.04-2.155 3.42s-1.223 1.414-1.353 2.298c-.401 2.734-3.742 12.919-5.102 15.553-.71 1.375-1.296 3.175-1.303 4s-.685 2.789-1.506 4.364c-1.91 3.662-1.897 9.291.038 16.76.843 3.252 1.697 7.817 1.898 10.144s.6 4.906.885 5.731.769 3.3 1.074 5.5c2.321 16.742 4.396 21.012 9.836 20.24 1.499-.213 2.855 0 3.014.478s1.857 1 3.774 1.165 4.809.843 6.425 1.505c3.406 1.397 10.486.823 16.742-1.355 2.376-.828 5.557-1.511 7.07-1.519s2.75-.52 2.75-1.137c0-.786.441-.756 1.47.098 2.067 1.716 11.218.315 14.685-2.249 4.619-3.415 15.845-4.169 15.845-1.064 0 .838.9 1.759 2 2.047 1.126.294 2 1.364 2 2.448 0 1.059.862 2.851 1.916 3.982 1.236 1.327 1.75 2.969 1.449 4.629-.257 1.415-.057 3.733.443 5.152s1.714 5.145 2.696 8.281 2.059 5.67 2.391 5.632c2.845-.329 6.109.351 5.604 1.167-.775 1.254 3.754 1.333 5.05.088.522-.502 3.65-1.345 6.95-1.874 8.453-1.355 15.294-4.171 19.441-8.001 3.441-3.179 3.495-3.336 1.618-4.75-1.068-.804-2.954-1.462-4.191-1.462s-2.486-.381-2.774-.848-4.477-1.144-9.309-1.506c-18.185-1.363-18.86-1.746-17.414-9.87.237-1.332 6.602-4.165 8.784-3.909 1.185.139 2.463-.247 2.839-.856.496-.803 1.073-.785 2.095.063 1.088.903 1.792.857 3.074-.202 1.124-.927 1.783-1.016 2.033-.272.406 1.206 6.536.95 17.468-.728 7.791-1.196 11.054-3.692 9.042-6.914-.663-1.062-1.206-2.738-1.206-3.725 0-2.367 6.822-13.226 8.327-13.255.645-.012 2.298-.902 3.673-1.978s3.962-1.965 5.75-1.978 3.25-.472 3.25-1.022 1.07-1 2.378-1 2.916-.648 3.573-1.441 1.792-1.212 2.521-.932 1.623.028 1.986-.559 1.449-1.068 2.413-1.068 3.616-.9 5.893-2 4.836-2 5.688-2 1.548-.47 1.548-1.044.563-.93 1.25-.79 2.15-.24 3.25-.843c2.418-1.326 13.922-2.632 25.5-2.894 4.675-.106 10.525-.426 13-.711s8.55-.117 13.5.374c19.314 1.915 23.611 2.061 25.064.856.784-.651 2.328-.947 3.431-.659s2.005.086 2.005-.449.9-.688 2-.339c1.198.38 2 .18 2-.5 0-.663.796-.882 1.916-.527 1.054.334 2.21.132 2.569-.449s1.016-.833 1.459-.559c1.199.741 11.816-2.785 18.056-5.996 1.375-.708 4.188-1.603 6.25-1.989s3.75-1.05 3.75-1.475 1.013-1.018 2.25-1.319c4.253-1.033 12.251-4.039 12.77-4.8.814-1.191 5.852-2.886 8.576-2.886 1.356 0 2.727-.68 3.046-1.511.741-1.932 6.163-1.439 9.442.858 4.827 3.381 7.057 2.325 14.844-7.028 1.909-2.293 4.015-3.894 4.75-3.612s1.321-.16 1.321-.989c0-.939 1.397-1.754 3.75-2.188 3.762-.694 8.25-3.937 8.25-5.96 0-.595-1.407-1.704-3.127-2.466s-3.857-2.668-4.75-4.238-2.411-2.857-3.373-2.86-1.75-.681-1.75-1.506-.41-1.5-.911-1.5c-1.435 0-5.4-8.959-6.149-13.891-.763-5.028.563-11.202 2.666-12.409.766-.44 1.393-1.452 1.393-2.25s.675-1.45 1.5-1.45 1.5-.401 1.5-.892c0-1.232 4.253-2.182 11.694-2.613 3.457-.2 6.708-.626 7.226-.946s1.224-.125 1.57.434 2.825 1.016 5.51 1.016 5.179.481 5.542 1.068 1.275.832 2.027.544 1.612-.129 1.911.355 2.901 1.654 5.782 2.601 6.126 2.331 7.211 3.076 3.447 1.356 5.25 1.356c2.247 0 3.277.472 3.277 1.5 0 .825.412 1.5.915 1.5s3.627 2.78 6.942 6.178c4.702 4.82 6.173 7.073 6.693 10.25 1.029 6.284 2.582 7.486 8.232 6.368l9.717-1.832 8.5-1.553c1.925-.36 4.235-1.297 5.132-2.081 1.01-.883 2.589-1.187 4.141-.797 1.408.353 2.802.155 3.177-.451.367-.594 1.429-1.084 2.359-1.087s3.025-.701 4.654-1.551c1.999-1.042 6.23-1.61 13-1.744 6.506-.129 10.388-.631 11.037-1.427 2.594-3.187 15.193-3.033 21.566.262 1.453.752 4.846 1.464 7.538 1.584 5.921.264 12.684 3.145 14.738 6.281 2.199 3.357 7.186 5.347 15.408 6.15 3.988.39 7.25 1.131 7.25 1.647s.862.665 1.916.33 2.205-.14 2.559.433 1.715 1.041 3.025 1.041 2.66.45 3 1 1.491 1 2.559 1 1.941.42 1.941.933 1.003 1.251 2.23 1.64c2.683.851 7.971 6.293 7.25 7.46-.282.456-.055 1.112.504 1.457s1.016 1.432 1.016 2.414.824 2.532 1.832 3.444c1.643 1.487 2.314 1.513 6.5.253 2.567-.773 4.668-1.134 4.668-.803s.505.097 1.122-.52 1.742-.884 2.5-.593 1.378.031 1.378-.578 1.125-1.107 2.5-1.107 2.5-.388 2.5-.861 1.138-.644 2.529-.378c2.789.533 5.471 3.7 5.471 6.462 0 1.077.746 1.778 1.893 1.778 1.659 0 3.128 1.818 3.096 3.832-.01.367-3.343 4.168-7.416 8.446a458.33 458.33 0 0 0-14.392 16.008c-5.92 6.973-7.101 8.992-7.733 13.222-.772 5.166-6.582 19.842-8.904 22.488-.726.828-2.046 4.743-2.933 8.702-2.683 11.972-1.722 25.287 2.023 28.026.96.702 1.351 1.277.868 1.277s.258 1.237 1.647 2.75 3.264 4.376 4.169 6.362 2.327 4.179 3.162 4.873 1.519 1.923 1.519 2.733 1.012 2.886 2.25 4.613c3.014 4.206 4.75 7.599 4.75 9.283 0 .762.443 1.386.986 1.386s1.495 2.025 2.119 4.5 1.473 4.5 1.89 4.5 1.349 2.673 2.074 5.94 1.644 5.738 2.043 5.491 1.045 1.003 1.434 2.777 1.081 3.916 1.536 4.759 1.793 4.908 2.974 9.033 2.517 8.4 2.968 9.5 1.089 3.237 1.418 4.75l.597 2.75h9.922c5.707 0 10.192-.436 10.556-1.026.349-.565 1.163-.924 1.809-.799 1.809.35 8.675-2.453 8.675-3.542 0-.531.284-.682.632-.334s2.983-1.378 5.858-3.833 5.74-4.465 6.368-4.465 1.142-.405 1.142-.9 1.462-.956 3.25-1.024c5.331-.203 7.509-.633 8.917-1.761.783-.627 2.16-.735 3.333-.262 4.588 1.849 6.944 1.083 9.514-3.095 1.367-2.223 3.499-4.708 4.736-5.523s2.25-1.979 2.25-2.586 2.7-3.69 6-6.849 6-6.027 6-6.372c0-.631 1.208-2.15 5.614-7.059 1.313-1.462 2.386-3.103 2.386-3.645s.675-1.245 1.5-1.562 1.5-1.202 1.5-1.969.37-1.393.823-1.393 1.82-1.912 3.038-4.25c2.964-5.687 4.221-7.707 6.89-11.069 1.237-1.559 2.25-3.459 2.25-4.223s.9-1.87 2-2.458 2-1.729 2-2.535.45-1.465 1-1.465 1-.619 1-1.375c0-1.361 13.859-14.595 20.128-19.219 4.386-3.236 4.839-4.14 4.857-9.687.017-5.407.01-5.415-8.485-6.113-8.381-.688-15.91-2.22-18.325-3.728-2.023-1.263-3.519-4.273-3.257-6.552.074-.646-.327-1.46-.891-1.809s-1.026-2.831-1.026-5.516-.45-5.16-1-5.5-1-1.454-1-2.477-1.109-4.068-2.465-6.767c-2.638-5.251-2.599-9.991.122-15.207.732-1.402 1.333-3.282 1.337-4.177s.656-2.167 1.45-2.826c1.05-.871 1.292-2.485.886-5.913-.424-3.579-.08-5.607 1.429-8.422 1.543-2.879 2.027-5.887 2.168-13.46.099-5.364.606-10.18 1.127-10.702s.947-3.072.947-5.665c0-3.407.624-5.479 2.25-7.469 5.029-6.155 11.79-11.614 19.308-15.592 7.134-3.775 8.654-4.204 14.942-4.211 9.625-.012 15.488.559 16.112 1.568.765 1.238 6.278 3.391 10.888 4.253 2.2.411 6.475 1.921 9.5 3.355 3.346 1.586 7.85 2.771 11.5 3.024 5.498.381 9.5 2.192 9.5 4.298 0 .44 1.095 2.415 2.434 4.387 2.189 3.226 2.306 3.892 1.16 6.618-.701 1.667-2.041 3.926-2.977 5.02-2.585 3.019-.748 15.187 2.834 18.769 2.312 2.312 2.785 2.43 4.77 1.191 1.212-.757 4.028-2.346 6.258-3.532s4.716-2.565 5.525-3.064 6.377-1.046 12.375-1.215c10.733-.301 11.025-.249 18.514 3.301 4.185 1.984 10.594 5.589 14.243 8.011s7.168 4.405 7.82 4.405c1.741 0 9.926-5.836 11.324-8.074.661-1.059 1.667-1.926 2.234-1.926s3.271-2.066 6.009-4.592c6.544-6.037 11.258-8.354 17.551-8.628 2.838-.124 5.356-.734 5.595-1.356.259-.675 1.523-.066 3.133 1.508 6.333 6.192 7.403 7.947 8.072 13.239.633 5.005.837 5.319 3.348 5.149 1.47-.1 4.047-1.197 5.726-2.438 4.074-3.012 4.118-7.472.132-13.266-2.405-3.495-2.876-5.118-2.669-9.18.26-5.087 1.93-9.435 3.625-9.435.531 0 .965-.517.965-1.149 0-1.901 6.146-7.163 12-10.273 3.025-1.607 6.893-3.97 8.594-5.25s3.589-2.328 4.193-2.328 1.697-.854 2.428-1.897 3.177-2.861 5.436-4.038 4.906-3.024 5.883-4.103 2.413-1.962 3.192-1.962c1.754 0 10.273-4.916 10.273-5.928 0-.406-1.544-2.282-3.431-4.169-3.436-3.435-12.526-19.903-15.115-27.381-1.377-3.976-1.028-8.522.654-8.522.49 0 .892-.659.892-1.465 0-2.255 2.89-3.237 10-3.4 5.537-.126 6.89.201 9.129 2.206 2.986 2.674 7.747 9.611 12.871 18.752 1.925 3.434 4.767 7.406 6.316 8.825s5.07 4.908 7.824 7.753 6.662 5.945 8.684 6.892l8.613 4.079c2.715 1.297 5.736 2.358 6.712 2.358s4.155.855 7.063 1.901 6.412 2.191 7.787 2.545c3.313.854 7.992 6.655 9.125 11.314.514 2.112.626 14.235.257 27.861-.715 26.401-.343 30.794 2.746 32.447 2.529 1.354 3.121.799 3.547-3.322l1.173-11.247c.483-4.617.438-11.806-.106-17-1.275-12.171-.509-21.484 1.907-23.177 6.446-4.516 6.581-4.809 5.994-13.039-.302-4.232-.173-8.165.286-8.74s1.63-5.513 2.602-10.975c1.54-8.65 2.351-10.795 6.294-16.641 4.829-7.16 10.908-11.929 15.206-11.929 1.448 0 5.206.517 8.351 1.148l5.718 1.148 3.949-4.11c2.172-2.26 3.949-4.429 3.949-4.82s.656-1.434 1.457-2.32c2.234-2.468 3.893-15.165 2.708-20.721-.564-2.645-.629-5.608-.149-6.868.463-1.219 4.587-5.418 9.163-9.331s9.112-8.13 10.08-9.371c5.902-7.571 7.346-9.021 10.617-10.661 1.993-1 4.231-1.603 4.973-1.34s2.317.021 3.5-.537c6.06-2.857 9.786-4.295 12.572-4.852 1.694-.339 3.08-.913 3.08-1.277s.787-.734 1.75-.824l12.25-1.279c19.722-2.095 23-2.071 23 .173 0 .564.869 2.129 1.93 3.479 3.871 4.921 4.986 14.156 4.995 41.376.01 23.518-1.222 39.385-3.517 45.364-.489 1.275-.213 1.495 1.23.981 1.024-.365 2.565-1.264 3.426-1.999s3.111-1.855 5-2.49 4.206-1.821 5.149-2.635c2.401-2.074 10.3-3.369 15.967-2.618 4.556.604 4.803.8 5.376 4.258.33 1.993.837 4.299 1.128 5.124.613 1.744 1.315.29 3.377-7 .7-2.475 2.069-6.075 3.042-8s2.566-5.276 3.541-7.447 5.637-7.797 10.361-12.503c6.266-6.243 9.487-10.399 11.909-15.37l3.319-6.814-1.592-5.183c-.876-2.851-2.033-7.208-2.571-9.683s-2.173-7.65-3.633-11.5-3.236-9.025-3.948-11.5-2.629-8.325-4.262-13c-2.825-8.088-5.02-16.244-5.712-21.22-.174-1.254-.837-5.43-1.473-9.28s-1.407-11.95-1.714-18-.956-11.758-1.443-12.685c-.567-1.081-.179-4.639 1.082-9.92 1.734-7.259 1.802-8.6.573-11.315l-3.552-8.08c-1.187-2.75-3.062-6.919-4.168-9.263-2.237-4.747-2.132-8.821.536-20.737 2.493-11.132 5.028-18.201 9.148-25.5 5.531-9.802 5.938-11.143 4.21-13.891-.902-1.435-3.569-6.434-5.926-11.109s-4.597-8.735-4.977-9.023c-1.656-1.252-1.876-10.092-.401-16.135.851-3.488 1.745-7.467 1.987-8.842s1.187-5.2 2.099-8.5c1.612-5.831 3.113-12.194 5.544-23.5.651-3.025 1.537-6.4 1.97-7.5 2.172-5.514 4.197-10.195 5.162-11.932 3.106-5.59 4.856-16.549 5.198-32.568l.267-12.5 6.275-13.5c3.615-7.777 6.395-15.189 6.559-17.485.31-4.343-1.492-11.601-4.532-18.254-1.065-2.331-1.937-4.858-1.937-5.615s-.838-2.449-1.862-3.761-2.201-3.463-2.614-4.782c-1.08-3.445-5.809-10.021-7.238-10.065-.668-.021-1.697-.939-2.286-2.04s-2.594-2.638-4.455-3.415-3.885-2.352-4.499-3.498-1.944-2.085-2.957-2.085c-1.912 0-5.211-6.381-6.535-12.641-1.079-5.102 2.037-15.1 6.998-22.453 3.851-5.707 4.449-7.294 4.449-11.798 0-3.171.787-6.834 2.016-9.377 1.109-2.295 2.479-7.111 3.044-10.702s1.5-8.308 2.077-10.483 1.249-10.05 1.493-17.5c.658-20.073.802-21.283 2.922-24.508 2.737-4.165 7.55-9.117 10.141-10.433 2.648-1.345 20.222-3.209 25.806-2.736 5.838.494 15.15 3.252 18.989 5.625l3.339 2.064.67-3.05c.369-1.678.325-4.953-.096-7.279s-.668-4.947-.547-5.824-.963-6.053-2.407-11.5c-3.05-11.506-3.712-23.947-1.88-35.346.668-4.157 1.25-14.356 1.294-22.664s.545-16.334 1.115-17.834.788-3.131.484-3.623.01-1.917.692-3.166 1.376-4.929 1.536-8.177.503-6.119.763-6.378c.931-.931-.344-23.508-1.387-24.55zM1668 1002.786c-.55-.34-1-1.68-1-2.977 0-3.37-1.001-5.523-2.567-5.523-.744 0-1.912-1.913-2.594-4.25s-1.593-4.497-2.022-4.798-2.358-3.789-4.286-7.75-4.122-7.202-4.876-7.202c-1.21 0-7.654-14.22-7.654-16.89 0-1.726-2.187-2.423-3.097-.988-1.511 2.386-.981 6.801 1.062 8.844 2.565 2.566 5.826 9.193 10.595 21.534 2.125 5.5 4.829 11.575 6.009 13.5 2.268 3.702 9.335 11 10.652 11 1.139 0 .953-3.774-.221-4.5zm-82.383 1016.5c-1.418 0-2.844 3.439-1.841 4.442 1.421 1.421 3.225.335 3.225-1.942 0-1.462-.574-2.5-1.383-2.5zm-91.141-25.02c-2.328-1.932-2.767-.553-.482 1.515 1.103.998 2.006 1.351 2.006.783s-.686-1.602-1.524-2.297zm-81.726-958.299c-3.808-4.813-9.871-10.615-11.131-10.654-1.451-.045.041 6.379 2.873 12.365 2.415 5.104 2.943 5.608 5.88 5.608 2.759 0 5.627-1.43 5.627-2.806 0-.223-1.463-2.254-3.25-4.513zm-28.75 42.819c-.55-.34-1-.19-1 .333s-1.013 1.235-2.25 1.583c-2.571.723-8.75 9.574-8.75 12.535 0 2.895 3.966 19.416 4.881 20.331.903.903 3.39-7.03 6.047-19.281 2.145-9.894 2.473-14.634 1.072-15.5zm-14.25-92.898c-7.534 5.689-11.75 9.487-11.75 10.585 0 1.301 8.463.937 10.174-.437.856-.687 2.573-3.275 3.816-5.75l3.076-6c1.772-3.257.685-2.929-5.316 1.602zm-9 1057.388c-4.538-4.675-8.765-9.397-9.395-10.495-1.126-1.962-1.234-1.949-6.5.775-9.828 5.085-9.397 4.04-9.056 21.979.191 10.092.674 15.75 1.344 15.75.575 0 1.268-.856 1.542-1.901.472-1.806.644-1.818 3.425-.25 2.236 1.261 3.11 1.364 3.698.434.423-.669 2.102-1.119 3.731-1 2.42.178 2.927-.148 2.771-1.783-.162-1.704.477-2.033 4.325-2.225 6.237-.312 12.365-5.076 12.365-9.614 0-2.619-1.438-4.652-8.25-11.67zm-25.396-563.773c-1.266 1.266-1.222 1.451.348 1.465 2.059.018 3.772-1.997 2.167-2.548-.586-.201-1.718.286-2.515 1.083zm-34.213 615.783c-.472 0-2.385 1.807-4.25 4.015-3.109 3.682-9.925 7.985-12.648 7.985-2.202 0-2.389 2.156-.635 7.292 2.016 5.902 4.592 9.228 6.562 8.472.735-.282 1.946-2.257 2.691-4.389a124.78 124.78 0 0 1 3.133-7.876l3.108-7c2.742-6.188 3.297-8.5 2.039-8.5zm-110.891 9.484c-1.513-1.331-3.486-2.435-4.385-2.452s-2.338-1.104-3.197-2.415c-2.053-3.133-7.122-4.98-8.642-3.148-.838 1.01.091 2.87 3.938 7.89 2.769 3.613 5.035 6.987 5.035 7.499 0 1.676 3.255 2.221 4.895.819.883-.755 2.393-1.651 3.355-1.993 2.551-.905 2.143-3.433-1-6.2zm-86.666 52.586c-1.123-.932-1.522-.802-1.928.628-.859 3.026-1.876 12.303-1.348 12.303.273 0 1.432-1.463 2.577-3.25 2.418-3.776 2.723-8 .699-9.68zm.553-646.07c-3.119 0-19.137 18.143-19.137 21.676 0 2.111 11.748.977 14.085-1.36.698-.698 5.604-17.128 5.842-19.565.04-.413-.315-.75-.789-.75zm-15.83 671.863c-1.514 1.725-3.246 3.137-3.85 3.137s-2.034 1.078-3.18 2.396-2.689 2.78-3.43 3.25c-3.737 2.369-13.026 14.066-17.702 22.29-2.899 5.099-5.11 9.433-4.912 9.63s4.161-3.224 8.807-7.603 8.788-7.963 9.204-7.963.756-.472.756-1.048 1.125-2.09 2.5-3.365 2.5-2.749 2.5-3.278 1.13-2.023 2.511-3.32 3.58-4.639 4.886-7.424 3.064-5.964 3.907-7.063c2.528-3.298.966-3.015-1.997.362zm-5.462-97.745c-2.205-3.701-8.774-11.118-9.847-11.118-.833 0-2.995 6.222-3.472 9.997-.219 1.729-.827 3.675-1.351 4.323s-1.524 3.879-2.222 7.179-1.648 6.427-2.111 6.95c-1.533 1.73-.955 10.768.813 12.721 3.149 3.48 5.61 2.037 12.895-7.558 2.706-3.564 7.186-14.197 7.372-17.496.043-.76-.892-3.01-2.077-5zm-52.37-417.443c-.899-.161-9.125 15.487-13.049 24.825-.925 2.2-2.235 4.675-2.912 5.5-1.867 2.274-2.562 6.237-1.349 7.698 1.55 1.868 6.266 1.605 8.028-.448 1.353-1.576 5.482-15.249 7.323-24.25.394-1.925 1.169-4.062 1.723-4.75s.766-1.25.471-1.25-.166-1.237.287-2.75c.959-3.204.83-4.332-.521-4.575zm-86.92 634.325c-1.825 0-2.423.652-2.771 3.019-.605 4.12 1.808 6.185 3.138 2.687.525-1.381 1.44-2.811 2.033-3.178 1.646-1.017.212-2.528-2.4-2.528zm-5.145-495.396c-.657-.252-4.396 1.534-8.309 3.969s-7.487 4.427-7.942 4.427-2.031 1.35-3.501 3-3.345 3-4.165 3-1.492.724-1.492 1.61c0 1.374.914 1.519 6.25.988 8.296-.825 17.109-2.819 18.847-4.264 1.779-1.48 2.039-12.067.313-12.73zm-61.862 282.042c-1.349-1.455-3.509-2.646-4.8-2.646s-2.775-.414-3.298-.92-2.975-1.068-5.45-1.25c-4.436-.325-4.533-.266-6.784 4.17-1.402 2.763-2.174 5.851-2 8 .27 3.337.478 3.514 4.439 3.803 2.286.167 5.821-.393 7.856-1.243s4.153-1.267 4.706-.925 1.293.216 1.644-.28 1.876-1.689 3.388-2.651c3.369-2.144 3.397-2.714.298-6.058zm-126.32-214.01c-3.893-1.116-6.228-.279-6.228 2.233 0 2.414-5.701 5.899-11.051 6.754-4.223.675-5.439 2.376-1.699 2.376 3.376 0 15.133-2.6 17.51-3.872 3.064-1.64 5.381-4.202 4.956-5.479-.205-.615-1.775-1.521-3.488-2.013zM702 2044.234c-2.951-1.484-10.093-3.281-13.038-3.281-3.527 0-5.885 2.622-5.93 6.597-.047 4.083 4.907 11.757 7.31 11.323 6.388-1.153 13.925-7.587 13.451-11.481-.161-1.322-.968-2.744-1.793-3.159zm-187.214 87.751c-2.318-.311-6.363-.158-8.99.341s-5.453.646-6.279.329c-1.987-.763-18.371 1.587-19.081 2.736-.305.493-1.597.896-2.872.896s-2.84.628-3.477 1.395-2.685 1.682-4.551 2.032c-5.712 1.072-8.092 4.051-7.645 9.573.126 1.552 6.109 5.549 6.109 4.081 0-.454 3.938-1.594 8.75-2.533s11.45-2.52 14.75-3.515 7.575-2.145 9.499-2.555 4.227-1.586 5.117-2.612 2.508-1.866 3.596-1.866 2.782-.889 3.765-1.975 2.628-2.241 3.655-2.567c3.363-1.068 2.052-3.17-2.346-3.76zm-150.829 44.75c-1.649-1.988-3.69-1.815-4.882.414-1.549 2.894-.715 10.773 1.387 13.095 2.229 2.464 3.435 2.568 4.996.432 1.404-1.92.35-11.711-1.501-13.941zm927.623-718.948c-.647 3.3-1.455 6.675-1.797 7.5s-.848 2.625-1.125 4c-.978 4.848-4.444 16.56-6.367 21.516-1.071 2.759-1.791 5.485-1.6 6.058s-.786 2.107-2.172 3.409-2.527 2.851-2.537 3.442c-.033 1.98-8.084 7.802-12.718 9.197-5.249 1.58-12.416 1.815-13.814.454-.523-.509-4.325-1.404-8.45-1.989-6.688-.949-11.399-2.771-21.971-8.499-2.47-1.338-3.917-5.29-5.003-13.659-1.533-11.812-1.22-15.901 1.99-25.968 3.387-10.622 5.05-14.011 12.5-25.459 2.863-4.4 5.523-9.012 5.912-10.25s1.395-2.25 2.235-2.25 2.723-.841 4.183-1.869c3.655-2.574 6.046-3.193 12.621-3.272 4.385-.052 5.983.35 7.091 1.787 1.714 2.222 1.105 5.539-1.72 9.359-1.14 1.543-1.827 3.203-1.527 3.69.643 1.04 10.02.965 13.83-.111 1.994-.563 3.644-.113 6.73 1.835 2.249 1.42 4.718 2.581 5.486 2.581s1.958.675 2.642 1.5 1.853 1.5 2.597 1.5c1.602 0 4.455 5.133 4.281 7.7-.067.99-.651 4.5-1.298 7.8zm-30.168-2.87c-.989-2.577-9.126-8.676-10.746-8.055-1.594.612-9.322 12.338-8.938 13.563.125.399-.51 2.444-1.41 4.544-2.217 5.17-1.863 15.306.702 20.093 1.146 2.139 3.463 4.368 5.641 5.427 5.677 2.762 6.945 2.384 8.237-2.452l2.678-9.75c1.381-4.921 4.035-17.631 4.316-20.668.059-.643-.157-1.859-.48-2.702zm-459.436 736.467c-.421 2.528-1.488 5.994-2.371 7.7s-1.605 3.999-1.605 5.094-.45 2.269-1 2.609-1 1.276-1 2.079-1.801 5.217-4.003 9.808l-4.003 8.347 1.541 4.369c.848 2.403 2.657 5.533 4.019 6.955 1.663 1.736 3.011 5.029 4.1 10.014 2.224 10.18 2.368 12.51 1.204 19.428-1.289 7.66-1.363 9.976-.492 15.5.696 4.416.108 7.203-3.677 17.427-.8 2.16-2.182 4.459-3.072 5.11s-1.618 1.517-1.618 1.925c0 .754-10.869 17.034-15.801 23.668-4.562 6.136-13.444 15.869-14.482 15.869-.541 0-1.711.799-2.6 1.776s-2.836 2.55-4.326 3.496c-3.668 2.329-5.316 8.028-4.045 13.987.864 4.052.723 4.874-1.265 7.366l-2.237 2.806-7.872-1.309c-5.251-.873-8.932-2.11-11.056-3.715-1.751-1.324-3.448-2.407-3.771-2.407s-3.391-2.23-6.817-4.956c-8.379-6.668-12.123-11.11-23.003-27.294-1.756-2.612-3.76-4.75-4.452-4.75-2.671 0-20.166 9.566-28.146 15.39-4.605 3.36-12.03 9.763-16.5 14.227s-9.507 8.965-11.194 10c-4.355 2.674-11.857 8.972-18.355 15.41-3.068 3.04-6.704 6.094-8.079 6.788s-7.298 5.406-13.163 10.473c-14.4 12.442-20.255 16.002-24.837 15.104-1.925-.377-5.525-.774-8-.882-2.657-.116-6.506-1.284-9.399-2.853-5.218-2.83-13.227-3.63-15.326-1.532-.71.71-4.863 1.06-11.263.95-9.565-.165-15.012-1.339-15.012-3.235 0-.462-.831-.84-1.846-.84-2.966 0-7.625-2.735-11.269-6.617l-4.94-5.244c-.855-.902-2.88-2.765-4.5-4.14-3.079-2.614-5.445-6.151-5.445-8.142 0-.643-1.047-2.562-2.326-4.264s-3.413-5.794-4.741-9.094-2.79-6.272-3.249-6.605-.953-8.433-1.098-18c-.258-17.048-2.229-32.489-4.746-37.193-.611-1.141-1.324-3.678-1.585-5.638s-1.045-4.688-1.742-6.063-1.815-6.41-2.484-11.188c-1.722-12.284-2.127-12.653-9.752-8.87-3.391 1.682-7.488 3.059-9.106 3.059-4.396 0-13.294-3.148-13.95-4.935-.316-.861-1.04-1.875-1.608-2.254-.655-.437-.35-1.443.832-2.75 1.026-1.134 1.536-2.061 1.134-2.061-1.054 0 4.467-4.321 7.429-5.814 1.379-.695 3.575-2.822 4.879-4.725s3.101-3.462 3.993-3.464 2.521-1.35 3.621-2.997 2.303-2.995 2.673-2.997 2.136-1.465 3.923-3.253 3.51-3.257 3.827-3.267c.74-.022 4.785-3.334 7.612-6.233 1.207-1.238 2.602-2.25 3.102-2.25s1.756-1.575 2.793-3.5 2.264-3.5 2.727-3.5c2.428 0 7.555-8.038 6.361-9.97-.273-.441-2.032-1.091-3.909-1.443-2.81-.527-3.696-1.346-5.011-4.634-.879-2.196-1.598-4.9-1.598-6.008 0-1.728 2.318-6.359 3.977-7.945.288-.275 1.012-1.4 1.609-2.5s2.493-2.9 4.212-4 3.143-2.562 3.164-3.25.766-1.25 1.656-1.25 3.38-1.817 5.535-4.037 4.322-3.788 4.816-3.482 3.017-.628 5.608-2.075c6.288-3.51 14.277-3.133 17.388.821 1.788 2.273 2.437 2.473 5.674 1.742 2.01-.453 3.935-1.278 4.277-1.831s1.739-1.169 3.104-1.368a16.26 16.26 0 0 0 4.606-1.533c1.169-.645 3.981-1.47 6.25-1.832s4.125-1.032 4.125-1.486 1.575-1.122 3.5-1.484 3.5-.984 3.5-1.385 1.163-1.258 2.584-1.906c2.319-1.057 5.494-3.553 15.741-12.378 1.746-1.504 3.933-2.741 4.86-2.75 2.591-.025 6.64 1.743 8.975 3.919 1.933 1.8 2.007 2.324.895 6.265-1.701 6.027-1.481 8.029 1.112 10.133 1.577 1.28 3.174 1.658 5.295 1.253 7.292-1.392 14.08-1.369 16.323.056 2.053 1.304 2.267 2.154 2.11 8.384-.193 7.629.915 9.975 4.707 9.975 1.77 0 2.891-1.059 4.502-4.25 3.258-6.456 14.035-18.868 19.522-22.485 5.566-3.669 18.227-6.452 30.374-6.678 7.398-.137 13.609-3.313 18.231-9.321 2.017-2.621 7.627-8.657 12.468-13.413l12.076-12.191c1.801-1.949 4.164-3.826 5.25-4.171s1.975-1.112 1.975-1.705c0-1.378 13.864-.324 15.355 1.167.575.575 2.23 1.045 3.679 1.045s2.955.322 3.348.715c1.834 1.834 7.304 2.82 10.854 1.957 2.055-.5 3.52-1.258 3.256-1.684-.811-1.312 6.735-3.711 11.83-3.762 4.436-.044 5.177.317 9.25 4.508 2.435 2.506 4.428 4.646 4.428 4.755s-1.086 1.463-2.412 3.007c-5.429 6.318-3.225 11.565 6.939 16.516 3.372 1.643 6.596 2.987 7.163 2.987 1.581 0 5.03 7.803 6.41 14.5.68 3.3 1.564 6.45 1.964 7s.723 3.294.717 6.099.208 5.954.475 7 .142 3.97-.28 6.498zm-30.917-23.483c-1.684-1.684-3.432-2.073-9.804-2.183-8.233-.141-13.949-1.128-14.834-2.561-.921-1.49-6.792-.946-9.545.884-5.462 3.631-8.418 5.76-9.703 6.988-.73.698-2.286 1.782-3.458 2.409-2.601 1.392-14.438 10.516-17.274 13.315-1.133 1.118-4.257 3.382-6.944 5.032s-5.825 3.675-6.976 4.5-3.571 2.4-5.38 3.5-4.493 3.02-5.965 4.266-5.504 3.693-8.959 5.437-6.773 3.762-7.372 4.484-1.715 1.313-2.481 1.313-2.173.384-3.128.853c-8.547 4.198-9.21 4.378-13.653 3.712-2.499-.375-5.566-1.554-6.814-2.62-6.883-5.88-5.502-5.547-19.405-4.671-13.912.876-18.215.234-24.364-3.635-1.925-1.211-4.821-2.779-6.436-3.484s-4.54-2.51-6.5-4.012-4.689-3.267-6.064-3.922-3.625-2.097-5-3.203c-2.148-1.728-3.028-1.864-6.25-.967-2.062.574-3.75 1.434-3.75 1.91 0 1.016-13.544 9.228-23.298 14.126-3.739 1.877-9.229 5.213-12.202 7.414s-6.866 4.9-8.654 6l-4.896 3.016c-3.278 2.024-11.17 8.057-14.769 11.292-2.025 1.819-6.674 5.56-10.331 8.313-6.965 5.242-8.158 7.157-7.978 12.811.097 3.059 4.355 11.002 6.38 11.902.413.184 1.035 2.106 1.381 4.272s1.021 4.18 1.498 4.475.869 2.31.869 4.478.365 3.941.811 3.941.783 2.7.749 6 .244 6 .619 6 .276 1.414-.22 3.142-.609 3.616-.251 4.194.747 9.237.866 19.242c.215 18.1.564 21.749 2.721 28.421 1.111 3.436 3.983 8.307 6.324 10.724.652.673 2.176 2.827 3.387 4.786 1.755 2.84 2.483 3.33 3.586 2.414 1.066-.885 1.516-.805 1.958.346.316.822 3.133 2.26 6.262 3.195s6.363 1.961 7.188 2.281 1.8.62 2.167.668 1.026.446 1.465.885c1.37 1.37 9.805 5.021 11.118 4.813.688-.109 1.25.319 1.25.952 0 .664.706.88 1.67.51.919-.352 2.078-.063 2.576.643.718 1.017 1.011 1.024 1.413.034.279-.687 1.218-1.25 2.086-1.25 2.036 0 10.122-5.193 14.901-9.57 2.049-1.877 4.639-3.703 5.755-4.057s3.499-2.158 5.296-4.008 3.677-3.364 4.178-3.364 1.167-.667 1.48-1.483 1.182-1.248 1.932-.96c1.808.694 10.713-3.166 10.713-4.643 0-.873.341-.875 1.383-.01 1.067.885 1.517.799 1.969-.378.322-.839 1.209-1.526 1.971-1.526s2.599-1.125 4.083-2.5 3.349-2.5 4.146-2.5 1.448-.573 1.448-1.273c0-2.648 10.667-6.514 21.13-7.659 1.787-.195 9.467-12.242 12.064-18.923 3.706-9.534 4.351-10.707 5.713-10.396.601.138 1.093-.441 1.093-1.285 0-3.693 9.228-13.987 15.377-17.153 1.718-.884 4.515-2.666 6.217-3.96s3.614-2.352 4.25-2.352 1.156-.675 1.156-1.5.45-1.5 1-1.5 1 .52 1 1.155c0 .667.818.415 1.937-.598 1.065-.964 2.388-1.474 2.939-1.134s1.448-.178 1.993-1.152 1.135-1.582 1.311-1.351 2.507.12 5.18-.246c5.564-.763 14.783 1.469 17.566 4.252.95.949 2.479 2.015 3.4 2.369s1.674 1.331 1.674 2.174.478 1.531 1.062 1.531c.831 0 14.938 13.794 14.938 14.607 0 1.029 17.946 18.393 19.01 18.393 1.499 0 13.99-12.595 13.99-14.107 0-.491.374-.893.832-.893 1.131 0 7.274-9.492 9.363-14.466.932-2.219 1.719-5.733 1.75-7.809.074-5.005-2.538-6.016-13.361-5.173-7.396.576-8.578.4-13.899-2.065-6.734-3.12-9.836-7.665-7.993-11.711.57-1.252 1.032-2.502 1.025-2.776-.029-1.171 4.379-8.965 6.571-11.617 1.311-1.586 3.017-4.346 3.792-6.133s1.67-3.25 1.989-3.25 1.779-2.588 3.245-5.75 3.775-7.035 5.133-8.606 2.972-4.383 3.589-6.25 1.535-3.394 2.043-3.394.922-.681.922-1.514.413-2.295.917-3.25c4.832-9.145 6.052-12.703 6.644-19.381.359-4.045.881-7.581 1.161-7.855s.256-4.513-.053-9.418c-.452-7.177-.962-9.318-2.611-10.968zm.441 89.355c-1.496.047-1.207 4.295.327 4.807.927.309 1.228-.353 1-2.198-.18-1.452-.777-2.626-1.327-2.609zm-51.593-116.338c-3.823-.765-7.654 1.151-10.772 5.386-2.683 3.645-3.078 4.098-11.21 12.885-5.461 5.901-7.235 9.097-5.048 9.097.483 0 1.438-.675 2.122-1.5s1.849-1.5 2.588-1.5c2.964 0 14.68-8.507 22.559-16.38 5.334-5.33 5.288-6.883-.24-7.989zm-45.08 165.119c-2.277-4.442-10.17.669-14.966 9.69-2.46 4.628-3.428 9.507-1.92 9.685l2.31.302c1.923.272 5.981-1.666 8.75-4.18 1.375-1.248 3.202-2.492 4.059-2.765 3.291-1.046 4.242-7.902 1.767-12.732zm-38.849-523.504c-1.088.679-1.977 1.638-1.977 2.13 0 3.631-15.595 11.472-26 13.072-2.475.381-5.85 1.092-7.5 1.582-3.63 1.076-13.067 2.275-16.464 2.091-1.355-.073-2.84-.806-3.3-1.627s-1.27-1.494-1.8-1.494-2.506-1.011-4.391-2.246c-6.994-4.585-8.703-19.284-2.861-24.606 3.065-2.792 16.656-10.148 18.749-10.148.675 0 3.442-1.142 6.147-2.538s7.077-2.811 9.715-3.145c4.478-.566 5.976-.218 11.883 2.764 1.083.547 1.841.417 2.135-.367.327-.87.843-.76 1.821.387.751.88 3.163 2.905 5.361 4.5 5.009 3.633 7.427 6.414 7.47 8.59.018.93.507 1.984 1.086 2.342s.869 1.172.644 1.809-.034 2.173.425 3.414c.643 1.738.38 2.539-1.144 3.491zm-26.093-4.208c-6.807-6.807-14.283-8.429-19.433-4.215-4.14 3.388-3.883 7.45.792 12.494 2.33 2.514 2.578 2.557 9.325 1.604 3.812-.538 7.081-1.416 7.265-1.95s1.158-.972 2.167-.972c1.628 0 2.683-1.147 2.921-3.173.043-.37-1.323-2.075-3.037-3.789zm-177.389 791.837c-2.918 5.707-5.601 12.344-5.962 14.75s-.996 4.374-1.411 4.374-1.78 2.473-3.032 5.494-3.8 7.184-5.661 9.25-3.394 4.24-3.407 4.832-1.486 2.258-3.273 3.703c-9.426 7.618-14.598 11.541-17.75 13.462-1.925 1.173-5.279 3.962-7.453 6.196s-4.537 4.063-5.25 4.063-1.297.465-1.297 1.033c0 1.551-12.911 13.796-16.636 15.779-2.614 1.391-5.624 3.936-13.668 11.558-3.407 3.229-7.545 6.455-9.195 7.17s-5.8 3.731-9.223 6.704c-7.945 6.901-16.129 10.932-23.266 11.459-3.031.224-6.09.6-6.799.835s-1.579-.352-1.934-1.305-1.47-2.326-2.477-3.05-2.459-2.822-3.228-4.661c-1.392-3.331-9.804-12.317-14.897-15.913-1.472-1.039-2.677-2.441-2.677-3.114s-1.766-2.448-3.924-3.943l-3.924-2.719-3.826 1.781c-4.291 1.997-5.361 3.131-4.665 4.944.692 1.803-2.368 11.46-4.312 13.607-.913 1.008-2.265 1.834-3.005 1.834s-1.345.599-1.345 1.331c0 1.257-2.665 3.008-6 3.943-.825.231-3.067-.636-4.982-1.927s-3.998-2.348-4.628-2.348-1.723-.696-2.428-1.545-1.871-1.32-2.59-1.044-1.558.098-1.863-.397c-.692-1.12-7.658-2.2-14.684-2.277-2.929-.032-6.703-.632-8.387-1.333s-7.44-1.555-12.791-1.899l-9.729-.624-3.209 3.401c-1.765 1.871-4.13 4.532-5.255 5.915-3.377 4.149-5.66 4.902-11.507 3.793l-5.643-.99c-.232 0-.158-.427.164-.95s-.257-1.401-1.288-1.953c-1.887-1.01-2.911-7.097-1.194-7.097.469 0 1.153-1.361 1.518-3.024s1.733-4.294 3.039-5.846 2.544-4.358 2.751-6.234c.435-3.951 1.717-6.632 6.188-12.942 1.772-2.501 3.999-6.888 4.95-9.75s2.169-5.204 2.707-5.204.74-.386.449-.858-.089-2.384.45-4.25c.686-2.374.629-4.248-.191-6.24-1.081-2.629-.93-3.037 1.971-5.307 4.369-3.419 11.536-18.27 11.448-23.721-.104-6.412-1.297-10.846-3.832-14.237-1.28-1.712-2.614-4.412-2.964-6s-.891-3.562-1.202-4.387-.469-2.488-.352-3.695-.311-3.175-.952-4.372c-1.018-1.903-1.728-2.1-5.642-1.563-2.797.383-6.907 0-10.95-1.012-6.335-1.591-6.514-1.581-8.422.467-1.44 1.545-1.949 3.522-1.949 7.558 0 6.33-2.677 10.393-8.96 13.598-3.92 2-4.857 2.017-9.355.174-1.548-.635-3.385-1.154-4.08-1.154s-3.479-1.123-6.185-2.496-5.707-2.498-6.67-2.5-1.75-.347-1.75-.767c0-.768-2.978-2.579-6.278-3.818-1.263-.474-1.593-1.284-1.139-2.794 1.25-4.157 3.807-9.189 6.925-13.626 1.739-2.475 4.796-7.2 6.794-10.5 3.991-6.592 10.969-14.518 14.382-16.336 1.201-.64 3.526-1.164 5.167-1.164s3.153-.511 3.361-1.136c.555-1.665 4.513 1.035 5.258 3.587.329 1.127.979 5.566 1.445 9.864.65 5.997 1.346 8.28 2.994 9.815l2.148 2.001 4.168-3.066c2.293-1.686 4.799-3.065 5.57-3.065s2.831-.678 4.578-1.507c3.133-1.487 5.377-4.966 9.185-14.243.959-2.338 2.029-4.25 2.377-4.25s1.468-1.414 2.489-3.143c3.128-5.296 11.117-12.386 15.635-13.877 5.684-1.876 12.948-8.668 16.249-15.192 2.256-4.458 2.688-6.606 2.68-13.302-.017-13.683-1.978-36.199-3.537-40.619-1.092-3.095-1.231-5.045-.52-7.295.534-1.689 1.434-6.447 2.001-10.572s1.305-8.625 1.64-10c3.291-13.487 4.116-22.91 2.176-24.85-.687-.687-1.25-1.79-1.25-2.45s-1.08-1.353-2.399-1.539c-2.77-.391-7.101 1.638-7.101 3.328 0 1.765-7.045 10.809-12.202 15.666-4.713 4.438-8.767 6.317-16.871 7.821-5.394 1.001-12.49 4.2-19.404 8.75-6.211 4.086-12.58 4.489-16.836 1.065-1.987-1.599-3.822-2.133-6.631-1.93-2.3.166-5.244-.445-7.22-1.498-1.835-.978-3.561-1.834-3.836-1.902-5.762-1.423-6-1.644-6-5.569 0-2.14-.406-3.892-.902-3.892s-1.386-1.388-1.977-3.084c-.971-2.785-1.372-3.019-4.125-2.415-8.368 1.838-20.671-5.87-22.964-14.386-.597-2.217-1.523-4.301-2.058-4.632s-.973-1.405-.973-2.387c0-3.141-6.668-7.581-15-9.989-2.475-.715-5.175-1.702-6-2.193-10.278-6.118-14.063-6.134-16.729-.071l-3.44 7.723c-1.007 2.236-1.832 4.317-1.832 4.624 0 .695-6.899 7.965-9.198 9.693-2.151 1.617-12.769 3.1-14.783 2.066-3.373-1.732-8.88-3.948-9.813-3.948-.546 0-1.251-.675-1.567-1.5-.337-.877-1.835-1.5-3.607-1.5-1.924 0-3.031-.509-3.031-1.393 0-.766-.675-1.652-1.5-1.969-1.102-.423-1.5-2.162-1.5-6.548 0-3.285.375-6.204.834-6.488s.91-2.223 1.002-4.309c.223-5.067 1.449-11.573 4.67-24.793 4.18-17.156 5.615-21.883 7.138-23.5.777-.825 2.438-2.667 3.691-4.093 2.861-3.255 6.567-4.234 9.05-2.39 1.505 1.118 1.76 2.177 1.267 5.258-.975 6.097.81 10.736 5.789 15.045 1.067.924 3.08 2.917 4.473 4.43s3.122 2.75 3.845 2.75c1.337 0 5.242 7.941 5.242 10.66 0 .822 1.317 2.811 2.926 4.42 2.531 2.531 3.283 2.791 5.565 1.923 1.451-.552 3.798-1.003 5.214-1.003 2.226 0 8.361-2.338 13.294-5.066l7.5-4.018c3.3-1.754 7.125-4.31 8.5-5.68s4.075-3.671 6-5.113 4.269-3.57 5.21-4.728 4.394-4.072 7.674-6.473c10.839-7.936 14.317-17.121 11.549-30.502-.692-3.345-1.033-7.752-.758-9.792s.015-4.295-.579-5.01-.882-1.496-.643-1.736.022-2.223-.483-4.408c-2.691-11.624-1.963-31.03 1.322-35.246.546-.701.757-1.51.47-1.797s.03-2.394.705-4.681c1.095-3.707.983-4.759-1.031-9.703-1.444-3.545-1.924-5.949-1.33-6.668.511-.618.677-1.778.37-2.578-.707-1.843.953-6.27 3.293-8.783 2.216-2.378 15.141-4.213 19.73-2.801 7.787 2.397 34.512.988 40.332-2.126 1.048-.561 2.134-.791 2.414-.512s4.555.651 9.501.825 9.614.705 10.373 1.18 1.831.9 2.381.945c1.801.146 6.292 2.326 6.935 3.366.346.56 1.29.765 2.097.455.886-.34 1.468.028 1.468.927 0 .82 1.108 1.702 2.463 1.961 2.514.48 5.091-1.537 7.33-5.738.586-1.1 2.11-2.085 3.387-2.189s3.558-.494 5.07-.866c3.06-.754 14.152 4.132 17.315 7.627.96 1.061 2.528 1.929 3.484 1.929s1.997.675 2.314 1.5 1.227 1.5 2.024 1.5 1.598.346 1.781.769 2.807 2.785 5.83 5.25c7.235 5.898 8.449 7.684 8.14 11.97-.195 2.694.38 4.275 2.307 6.355 1.411 1.523 3.014 2.491 3.561 2.153s.996-.211.996.283c0 1.783 11.642 6.075 16.75 6.175 1.238.024 2.25.494 2.25 1.044s.9 1 2 1 2 .45 2 1 .567 1 1.26 1 2.592 1.237 4.219 2.75c3.484 3.238 7.091 5.25 9.412 5.25.915 0 2.647.689 3.849 1.531 2.227 1.56 9.148 1.534 17.459-.065 2.05-.394 6.6-.165 10.204.515 5.136.969 7.251 1.952 10.05 4.671 1.95 1.894 3.546 4.055 3.546 4.802 0 2.827 9.546 9.424 17.012 11.756 5.099 1.593 8.721 3.516 11.908 6.322 2.519 2.218 5.863 4.591 7.43 5.274s3.083 2.131 3.367 3.217 1.139 1.976 1.9 1.976 1.383.665 1.383 1.477 1.125 2.214 2.5 3.115 2.5 2.191 2.5 2.868.848 1.997 1.884 2.935c1.954 1.768 3.853 7.928 4.027 13.061.055 1.626.548 3.403 1.095 3.95s.994 1.756.994 2.687.675 1.952 1.5 2.269 1.5 1.49 1.5 2.607.645 2.031 1.433 2.031 1.736.955 2.106 2.123c1.115 3.514.751 25.917-.535 32.877-2.029 10.984-2.432 16.476-3.48 47.436-.278 8.215-.88 15.189-1.337 15.5-1.449.983-2.067 3.784-1.058 4.793.624.624.636 3.796.031 8.872-.517 4.345-1.015 11.209-1.106 15.253s-.676 8.17-1.299 9.169c-.861 1.379-.827 2.186.142 3.353.702.846.984 2.01.627 2.587s-.17 2.622.414 4.544l2.13 7.001c1.495 4.914 1.88 15.798.734 20.793-.911 3.974-1.631 7.552-3.862 19.2-1.651 8.622-1.689 8.881-4.401 30.247-.354 2.793-.06 3.335 2.104 3.878 1.384.347 4.938.347 7.898-.001 5.02-.59 5.586-.433 8.421 2.338 1.671 1.634 3.039 3.624 3.039 4.422s.18 2.051.401 2.784-1.987 6.001-4.905 11.707zm-31.524-221.376c-.493-1.65-1.21-5.469-1.594-8.487-.813-6.393-4.525-11.013-8.85-11.013-2.777 0-8.02-2.35-10.275-4.605-.74-.74-2.899-2.083-4.799-2.984s-3.468-2.15-3.487-2.775c-.044-1.495-3.524-5.636-4.737-5.636-.522 0-2.475-1.623-4.34-3.606s-4.178-4.334-5.14-5.222-1.75-1.975-1.75-2.415-2.435-5.769-5.411-11.844c-4.648-9.487-5.288-11.476-4.536-14.097 1.256-4.378-1.08-9.532-4.737-10.456-2.789-.704-4.628-.724-21.524-.231-8.213.24-9.815-.085-16.029-3.246-.955-.486-2.334-.883-3.065-.883s-3.527-2.212-6.215-4.916-6.033-5.147-7.435-5.428c-13.097-2.633-17.96-4.226-25.549-8.369-4.604-2.514-15.329-7.287-16.373-7.287-.62 0-1.127-.45-1.127-1s-.538-1-1.195-1-2.455-1.207-3.995-2.682c-2.397-2.296-3.557-2.652-8.055-2.468-5.272.215-11.755-2.451-11.755-4.834 0-.558-.597-1.015-1.326-1.015s-2.383-1.125-3.674-2.5-2.89-2.5-3.552-2.5-1.725-.629-2.363-1.397c-4.067-4.9-36.492-8.92-52.772-6.542-10.679 1.56-13.703 3.172-12.847 6.849.745 3.199 3.769 9.472 4.784 9.924.413.183.75.985.75 1.781s.675 1.707 1.5 2.024 1.5 1.048 1.5 1.624 1.125 2.524 2.5 4.326 2.5 3.688 2.5 4.189.823 1.657 1.83 2.568 3.236 4.468 4.954 7.905c3.833 7.667 4.882 15.61 2.829 21.428-.803 2.277-1.231 4.369-.951 4.649s-.458 1.027-1.641 1.66c-1.58.846-1.873 1.485-1.104 2.412.753.907.552 1.799-.718 3.18-1.66 1.805-5.199 8.497-5.199 9.831 0 .335-1.575 2.85-3.5 5.589s-3.5 5.294-3.5 5.678c0 .845-16.802 17.061-22.755 21.961-5.749 4.732-14.185 10.353-15.596 10.392-2.067.057-4.416 2.472-5.839 6.003-2.852 7.078.99 21.047 7.067 25.691 5.651 4.318 8.561 3.951 22.785-2.873 3.39-1.626 6.399-3.573 6.689-4.327.796-2.074 4.731-.674 7.898 2.81 1.512 1.663 2.75 3.393 2.75 3.844s.581.82 1.292.82c1.55 0 8.708-6.574 8.708-7.998 0-.551.508-1.002 1.129-1.002 1.459 0 12.871-11.428 12.871-12.889 0-.611.9-1.111 2-1.111s2-.399 2-.886 1.688-1.68 3.75-2.651 5.545-3.497 7.74-5.614 4.502-3.849 5.128-3.849 1.715-.696 2.421-1.545 1.834-1.334 2.508-1.075 2.257-.253 3.518-1.136c1.517-1.062 3.955-1.518 7.197-1.346 3.763.2 5.208-.156 6.213-1.53 1.155-1.579 1.515-1.62 3.053-.344.959.796 2.245 1.467 2.858 1.491 3.056.119 8.072 1.895 9.977 3.532 6.905 5.932 8.209 6.953 8.888 6.954.413.001.75 1.55.75 3.442s.433 3.708.962 4.035c.583.36.857 9.603.697 23.468-.312 26.947 0 28.135 6.016 23.173 2.08-1.715 4.597-3.117 5.594-3.117s3.65-.937 5.896-2.083c11.682-5.96 26.778 1.908 18.756 9.775-1.575 1.544-2.876 3.595-2.891 4.558s-.478 1.75-1.028 1.75-1 .91-1 2.021-1.093 3.699-2.428 5.75-3.187 6.091-4.115 8.979-2.085 5.25-2.572 5.25-.885.493-.885 1.096-.844 2.29-1.876 3.75-2.212 4.229-2.624 6.154c-.874 4.086-4.546 12.35-5.703 12.833-.438.183-.797 1.169-.797 2.191s-.412 2.112-.916 2.424c-1.104.682-14.653 27.774-14.356 28.705.115.36-.882 2.61-2.213 5s-3.19 5.922-4.13 7.847a51.6 51.6 0 0 1-3.909 6.503c-1.21 1.652-3.156 5.101-4.324 7.665s-2.702 5.263-3.408 5.997-2.922 3.585-4.923 6.335-4.805 6.091-6.229 7.424c-3.562 3.333-3.318 6.419.753 9.525 1.839 1.403 3.639 2.551 4 2.551s1.487.831 2.503 1.848c1.451 1.451 1.827 3.275 1.75 8.5-.054 3.659.24 6.653.652 6.652s.75.626.75 1.393c0 2.411 7.266 4.227 9.645 2.411.63-.481 1.53-.787 2-.68s1.693-.17 2.717-.615c1.202-.522 2.851-.224 4.654.841 1.536.907 3.305 1.65 3.93 1.65 2.521 0 5.212 3.946 5.891 8.636l.703 4.864 4.48-.318c2.464-.175 6.013-.72 7.886-1.213s3.878-.603 4.455-.247 2.411.797 4.075.979c4.528.496 5.49 2.121 6.111 10.324.82 10.84 1.161 11.85 5.379 15.902 4.743 4.557 4.885 7.287.778 14.915-4.048 7.518-4.086 12.906-.146 20.744 1.618 3.22 3.392 6.317 3.942 6.883 2.825 2.907 8.612 6.529 10.433 6.529 1.137 0 2.067.45 2.067 1 0 1.661 7.693 1.125 13.585-.945 3.044-1.07 6.14-1.714 6.879-1.43s3.271-.416 5.627-1.555 4.987-2.084 5.846-2.102c2.785-.056 6.855-4.607 10.388-11.615 1.9-3.769 5.115-8.654 7.144-10.854l6.246-6.805c1.407-1.543 3.059-2.621 3.671-2.397s2.464-.421 4.114-1.435 4.125-2.385 5.5-3.049 3.751-2.511 5.281-4.106c1.756-1.832 3.368-2.675 4.377-2.288.878.337 2.167.139 2.864-.44s1.653-.936 2.123-.795c1.438.433 6.24-3.248 6.884-5.277.333-1.051 1.152-1.91 1.82-1.91s1.771-1.237 2.453-2.75a93.07 93.07 0 0 1 2.908-5.75c2.394-4.305 2.043-8.417-1.109-13-2.301-3.346-2.651-4.67-2.137-8.101.603-4.026.517-4.174-4.73-8.135-5.511-4.16-6.586-6.377-8.374-17.264-.316-1.925-.956-4.22-1.422-5.099s-1.142-5.83-1.503-11-1.138-10.301-1.727-11.401-1.189-3.068-1.334-4.374-1.027-3.985-1.962-5.953-2.533-7.398-3.553-12.065-2.286-8.753-2.813-9.079-1.624-4.403-2.437-9.06-1.787-9.272-2.164-10.255c-.716-1.864 2.174-6.067 3.576-5.2.414.256 1.27-.158 1.902-.919s2.82-1.697 4.863-2.079c5.963-1.114 6.211-1.476 12.004-17.515 3.697-10.235 6.019-18.273 6.646-23 .255-1.925 1.138-5.75 1.962-8.5s1.677-6.125 1.896-7.5.663-3.175.986-4c.548-1.398 4.331-20.08 4.956-24.472.502-3.528-.346-16.951-1.265-20.028zm-13.433-63.053c-1.354-1.461-4.166-3.252-6.25-3.981-3.689-1.29-3.819-1.254-4.951 1.355-.949 2.188-.875 3.001.405 4.429.862.963 1.188 1.75.724 1.75s.122.9 1.303 2c3.121 2.907 6.356 3.138 8.92.636 2.803-2.735 2.796-3.009-.151-6.189zM250.25 2613.058c-6.984.561-12.572 3.553-13.797 7.388-.292.913-1.651 2.395-3.021 3.292-2.267 1.485-2.632 1.49-4.066.056-3.027-3.027-5.223-1.605-19.132 12.386-7.526 7.57-9.28 9.886-9.036 11.927.265 2.217 1.01 2.673 5.97 3.658 5.62 1.117 9.016.651 10.289-1.409.364-.589 1.368-1.07 2.231-1.07 2.398 0 15.4-11.18 16.581-14.257.361-.941 3.374-2.953 6.694-4.469s6.037-3.254 6.037-3.861.964-1.961 2.143-3.008c2.789-2.479 5.848-7.466 5.853-9.54 0-1.405-.944-1.559-6.746-1.093zm-1.026-192.772c-1.761 0-10.549 10.251-11.776 13.737-1.163 3.304-1.126 3.915.305 5.013 3.492 2.679 5.148 1.072 9.625-9.34 2.581-6.003 3.249-9.41 1.847-9.41zm-24.974-78.104c-4.091-1.569-12.374.427-19.348 4.664-3.249 1.974-6.468 4.14-7.154 4.814s-3.945 3.212-7.242 5.638-7.039 5.554-8.315 6.95-6.817 7.188-12.313 12.872c-8.886 9.19-9.958 10.685-9.685 13.5.249 2.568.77 3.189 2.755 3.289 1.347.068 3.066-.495 3.822-1.25s2-1.373 2.766-1.373 1.844-.841 2.394-1.87c.931-1.74 3.468-2.723 13.527-5.242 4.472-1.12 8.989-5.607 13.477-13.388 2.925-5.071 12.283-15.5 13.908-15.5.488 0 2.092-.947 3.565-2.106s3.508-1.888 4.524-1.623c1.337.35 2.405-.518 3.87-3.144 2.672-4.791 2.653-5.003-.55-6.231zM145 2254.129c0-.942-.525-2.979-1.166-4.527s-1.204-3.265-1.25-3.815c-.136-1.624-4.155-1.722-5.473-.133-1.722 2.075-1.573 13.001.227 16.609.913 1.83 1.121 3.24.532 3.604-.599.37-.522 1.135.204 2.009.644.776.914 1.411.601 1.411s-.1 1.35.475 3 1.7 3 2.499 3c1.73 0 4.569-6.088 5.129-11 .22-1.925.569-3.672.775-3.881s-.283-1.322-1.089-2.473-1.465-2.862-1.465-3.803zm-116.235 93.157c-.421 0-.765-.603-.765-1.34s-1.099-1.84-2.442-2.452c-3.256-1.483-8.492.991-8.709 4.115-.615 8.873.497 12.677 3.708 12.677.794 0 1.443.45 1.443 1 0 1.804 2.34 1.049 5.18-1.672 2.386-2.286 2.758-3.37 2.57-7.5-.121-2.655-.564-4.828-.985-4.828zm308.115 423.5c-1.129 3.3-2.657 6.675-3.395 7.5s-2.326 5.325-3.53 10-2.69 9.4-3.303 10.5-1.173 2.756-1.243 3.68-1.175 3.85-2.453 6.502c-2.954 6.13-7.604 9.345-13.261 9.168-4.979-.156-7.025-1.096-10.804-4.961-1.553-1.589-3.189-2.888-3.635-2.888-.987 0-3.692-3.078-5.229-5.949-.62-1.159-1.541-1.851-2.047-1.539s-1.57-.989-2.365-2.891-2.398-3.969-3.562-4.592c-1.727-.924-2.03-1.812-1.649-4.831.799-6.332 2.769-14.654 3.703-15.648.491-.523.893-1.948.893-3.168s1.125-4.458 2.5-7.195 2.5-5.551 2.5-6.251c0-2.117 5.663-11.465 9.19-15.171 4.3-4.518 10.105-8.764 11.98-8.764 1.756 0 6.442 4.721 5.561 5.602-.978.978 2.55 4.199 6.33 5.778 1.914.8 4.328 2.391 5.365 3.537s2.295 2.082 2.796 2.082 2.457 1.178 4.345 2.619c2.95 2.25 3.429 3.2 3.4 6.75-.018 2.272-.958 6.831-2.087 10.131zm-18.821-2.5c-1.067 0-2.23-.468-2.584-1.041s-1.505-.767-2.559-.433-1.916.161-1.916-.386-1.238-1.596-2.75-2.332c-4.034-1.962-6.792-.265-9.901 6.09-4.414 9.022-3.705 13.111 3.651 21.059 2.537 2.741 7.722 4.474 9.654 3.227.583-.376 2.442-4.734 4.132-9.684 4.813-14.101 5.143-16.5 2.273-16.5zm-75.559 54.638c-.825.317-1.5 1.799-1.5 3.294 0 4.815-7.654 9.773-16.37 10.602-2.712.258-5.498.94-6.191 1.516-.838.695-1.469.709-1.882.041-.342-.553-1.315-.739-2.163-.413-1.709.656-9.394-1.576-9.394-2.728 0-.401-1.513-1.013-3.363-1.359s-4.169-1.522-5.155-2.611-2.092-1.98-2.459-1.98c-1.684 0-14.024-12.794-14.03-14.546 0-1.093-1.49-2.965-3.375-4.247l-3.368-2.293.435-11.207c.521-13.418 1.426-16.708 5.625-20.447 1.754-1.562 4.271-4.847 5.593-7.3s3.691-6.405 5.265-8.782 2.602-4.74 2.286-5.252.483-1.332 1.776-1.824 2.923-1.582 3.621-2.423c2.52-3.037 7.071-1.216 11.648 4.661 1.1 1.412 2.974 2.588 4.164 2.614 1.497.032 3.116 1.593 5.25 5.061 1.697 2.758 3.086 5.458 3.086 6s1.125.985 2.5.985 2.5.465 2.5 1.034 1.53 1.936 3.4 3.04c4.553 2.687 7.396 9.931 8.015 20.426.276 4.689 1.53 11.22 3.028 15.781 2.939 8.944 3.161 11.55 1.057 12.358zm-21.674-22.57c-.645-2.796-2.011-5.868-3.035-6.826s-2.621-2.53-3.549-3.492-2.262-1.75-2.965-1.75-1.278-.675-1.278-1.5-.515-1.5-1.144-1.5-2.542-1.606-4.25-3.57c-4.128-4.745-8.716-5.06-12.134-.835-6.143 7.594-5.808 11.331 1.784 19.92 8.373 9.472 11.993 12.83 16.462 15.272 3.542 1.935 4.499 2.093 6.205 1.028 2.287-1.428 3.947-5.106 4.96-10.989.064-.37-.412-2.962-1.058-5.758zm-23.75-332.568c-.953 3.3-2.222 7.165-2.819 8.59-1.401 3.342-9.599 10.551-14.612 12.849-3.921 1.797-5.267 1.684-12.145-1.025-1.1-.433-3.012-1.071-4.25-1.418s-2.25-1.275-2.25-2.063-.562-1.438-1.25-1.445c-1.738-.017-11.505-9.639-14.334-14.12-1.284-2.034-2.789-3.979-3.343-4.322-1.34-.828-.131-6.828 1.581-7.845.74-.44 1.346-1.482 1.346-2.316 0-1.743 12.481-14.384 14.202-14.384.628 0 3.81-2.32 7.071-5.156l5.928-5.156 2.959 1.748c1.627.961 5.516 1.969 8.642 2.24s5.912.792 6.191 1.158 1.851 1.355 3.493 2.197 3.509 2.58 4.148 3.862c1.788 3.586 1.452 19.655-.557 26.608zm-22.83-13.686c-2.06.122-4.944.702-6.409 1.289-3.238 1.298-4.756 5.803-2.4 7.122.86.481 1.563 1.363 1.563 1.96 0 1.528 4.813 5.815 6.529 5.815 2.182 0 4.85-4.81 5.498-9.914.714-5.625 0-6.556-4.781-6.273zM97.11 2104.286c-.885 2.475-2.172 4.86-2.86 5.3s-1.25 1.452-1.25 2.25-.379 1.45-.842 1.45c-.772 0-1.737 1.708-5.178 9.17-.737 1.599-1.055 5.109-.791 8.75.242 3.344.07 6.08-.383 6.08s-.743 1.688-.645 3.75c.249 5.258-1.538 8.995-6.967 14.568-7.909 8.119-19.163 12.071-27.627 9.701-7.231-2.024-8.578-4.24-9.206-15.136-.297-5.16-.905-10.034-1.351-10.83s-.424-2.462.047-3.701.987-5.651 1.147-9.803.612-7.549 1.005-7.549.598-2.812.455-6.25c-.296-7.087 1.889-16.039 6.896-28.25a44 44 0 0 0 1.925-6.298c.382-1.814 1.555-3.834 2.606-4.491s1.91-1.79 1.91-2.519c0-2.4 7.094-8.192 10.033-8.192 1.525 0 3.01-.669 3.329-1.5.317-.825 1.49-1.5 2.607-1.5s2.031-.353 2.031-.784c0-1.226 5.356-4.003 6.75-3.5.688.248 1.25.041 1.25-.459 0-1.31 6.211-.265 8.071 1.358 1.062.927 1.625 3.341 1.738 7.455.092 3.346.498 6.612.903 7.257s.771 1.623.815 2.173c.11 1.376 1.416 6.147 3.111 11.369 2.131 6.563 2.328 14.941.472 20.131zm-21.127-18.258c-1.076-3.433-1.963-7.029-1.97-7.992-.01-1.259-.822-1.75-2.898-1.75-3.429 0-5.511 2.716-7.188 9.377-.632 2.51-1.774 5.081-2.538 5.715S60 2093.572 60 2094.844s-.491 3.579-1.092 5.128-1.23 4.39-1.4 6.315c-.902 10.246-1.873 16.625-2.69 17.661-.558.708-.543 1.391.039 1.751.943.583 2.726 9.729 2.443 12.538-.221 2.205 2.479 6.862 4.654 8.026 1.622.868 2.361.476 4.572-2.423 1.734-2.273 2.424-4.131 2.014-5.421-.343-1.08-.147-2.257.434-2.617s.836-1.01.566-1.447c-1.235-1.998 1.855-13.925 4.94-19.068 1.815-3.025 3.483-6.4 3.708-7.5.851-4.161-.325-15.753-2.208-21.758z"/></svg>